<svg width="150" height="150" viewBox="0 0 150 150" fill="none" xmlns="http://www.w3.org/2000/svg">
<path d="M111.334 77.55C100.73 77.55 92.1335 86.146 92.1335 96.75C92.1335 107.354 100.73 115.95 111.334 115.95C121.938 115.95 130.534 107.354 130.534 96.75C130.534 86.146 121.938 77.55 111.334 77.55ZM115.882 90.818H112.996C112.654 90.818 112.274 91.268 112.274 91.866V93.9501H115.884L115.338 96.9221H112.274V105.844H108.868V96.9221H105.778V93.9501H108.868V92.202C108.868 89.694 110.608 87.656 112.996 87.656H115.882V90.818Z" fill="black"/>
<path d="M84.5834 66.125C83.1593 64.4992 82.3745 62.4113 82.3751 60.25H75.9376V86.0833C75.8879 87.4813 75.2977 88.8055 74.2913 89.777C73.2848 90.7484 71.9406 91.2915 70.5417 91.2917C67.5834 91.2917 65.1251 88.875 65.1251 85.875C65.1251 82.2917 68.5834 79.6042 72.1459 80.7083V74.125C64.9584 73.1667 58.6667 78.75 58.6667 85.875C58.6667 92.8125 64.4167 97.75 70.5209 97.75C77.0626 97.75 82.3751 92.4375 82.3751 85.875V72.7708C84.9855 74.6455 88.1196 75.6513 91.3334 75.6458V69.2083C91.3334 69.2083 87.4168 69.3958 84.5834 66.125Z" fill="black"/>
<path d="M113.997 45.7978L108.745 43.3472C108.287 43.1344 107.91 43.3729 107.91 43.8803V48.4964C107.91 49.0038 108.287 49.2423 108.745 49.0295L113.995 46.5789C114.456 46.3637 114.456 46.013 113.997 45.7978ZM110.249 23.7395C97.8506 23.7395 87.8 33.79 87.8 46.1884C87.8 58.5867 97.8506 68.6372 110.249 68.6372C122.647 68.6372 132.698 58.5867 132.698 46.1884C132.698 33.79 122.647 23.7395 110.249 23.7395ZM110.249 55.3082C98.7579 55.3082 98.5568 54.2723 98.5568 46.1884C98.5568 38.1044 98.7579 37.0685 110.249 37.0685C121.74 37.0685 121.941 38.1044 121.941 46.1884C121.941 54.2723 121.74 55.3082 110.249 55.3082Z" fill="black"/>
<path d="M40 48.875C38.5908 48.875 37.2133 49.2929 36.0416 50.0758C34.8699 50.8587 33.9566 51.9715 33.4174 53.2734C32.8781 54.5753 32.737 56.0079 33.0119 57.39C33.2868 58.7721 33.9654 60.0417 34.9619 61.0381C35.9583 62.0346 37.2279 62.7132 38.61 62.9881C39.9921 63.263 41.4247 63.1219 42.7266 62.5826C44.0285 62.0434 45.1413 61.1301 45.9242 59.9584C46.7071 58.7867 47.125 57.4092 47.125 56C47.123 54.1109 46.3717 52.2998 45.036 50.964C43.7002 49.6283 41.8891 48.877 40 48.875ZM40 60.75C39.0605 60.75 38.1422 60.4714 37.361 59.9495C36.5799 59.4275 35.9711 58.6857 35.6116 57.8177C35.2521 56.9498 35.158 55.9947 35.3413 55.0733C35.5245 54.1519 35.9769 53.3055 36.6412 52.6412C37.3055 51.9769 38.1519 51.5245 39.0733 51.3413C39.9947 51.158 40.9498 51.2521 41.8177 51.6116C42.6857 51.9711 43.4275 52.5799 43.9495 53.361C44.4714 54.1422 44.75 55.0605 44.75 56C44.75 57.2598 44.2496 58.468 43.3588 59.3588C42.468 60.2496 41.2598 60.75 40 60.75ZM47.125 40.5625H32.875C30.6711 40.5649 28.5582 41.4414 26.9998 42.9998C25.4414 44.5582 24.5649 46.6711 24.5625 48.875V63.125C24.5649 65.3289 25.4414 67.4418 26.9998 69.0002C28.5582 70.5586 30.6711 71.4351 32.875 71.4375H47.125C49.3289 71.4351 51.4418 70.5586 53.0002 69.0002C54.5586 67.4418 55.4351 65.3289 55.4375 63.125V48.875C55.4351 46.6711 54.5586 44.5582 53.0002 42.9998C51.4418 41.4414 49.3289 40.5649 47.125 40.5625ZM53.0625 63.125C53.0625 64.6997 52.4369 66.2099 51.3234 67.3234C50.2099 68.4369 48.6997 69.0625 47.125 69.0625H32.875C31.3003 69.0625 29.7901 68.4369 28.6766 67.3234C27.5631 66.2099 26.9375 64.6997 26.9375 63.125V48.875C26.9375 47.3003 27.5631 45.7901 28.6766 44.6766C29.7901 43.5631 31.3003 42.9375 32.875 42.9375H47.125C48.6997 42.9375 50.2099 43.5631 51.3234 44.6766C52.4369 45.7901 53.0625 47.3003 53.0625 48.875V63.125ZM49.5 48.2812C49.5 48.6335 49.3955 48.9779 49.1998 49.2709C49.0041 49.5638 48.7259 49.7921 48.4004 49.9269C48.0749 50.0617 47.7168 50.097 47.3712 50.0283C47.0257 49.9595 46.7083 49.7899 46.4592 49.5408C46.2101 49.2917 46.0405 48.9743 45.9717 48.6288C45.903 48.2832 45.9383 47.9251 46.0731 47.5996C46.2079 47.2741 46.4362 46.9959 46.7291 46.8002C47.0221 46.6045 47.3665 46.5 47.7188 46.5C48.1912 46.5 48.6442 46.6877 48.9783 47.0217C49.3123 47.3558 49.5 47.8088 49.5 48.2812Z" fill="black"/>
<path d="M71.841 112.523C72.601 111.889 73.4876 111.129 73.8835 110.29C73.2343 110.623 72.4585 110.828 71.6035 110.939C72.3951 110.369 73.0443 109.625 73.3768 108.612C72.5535 109.055 71.7143 109.435 70.6693 109.625C68.2151 106.664 62.341 109.071 63.386 113.504C59.2535 113.251 56.736 111.383 54.646 109.087C53.4585 111.018 54.4876 113.948 55.8968 114.755C55.1685 114.708 54.6143 114.486 54.0918 114.233C54.1551 116.671 55.501 117.843 57.3851 118.476C56.8151 118.587 56.1818 118.618 55.5801 118.523C56.166 120.218 57.3851 121.278 59.4751 121.5C58.0501 122.703 55.4218 123.543 53.3001 123.21C55.121 124.366 57.1951 125.284 60.0768 125.158C67.0593 124.841 71.7301 119.838 71.841 112.523ZM62.8001 100.917C64.8794 100.917 66.9383 101.326 68.8593 102.122C70.7803 102.918 72.5257 104.084 73.996 105.554C75.4662 107.024 76.6325 108.77 77.4282 110.691C78.2239 112.612 78.6335 114.671 78.6335 116.75C78.6335 120.949 76.9653 124.977 73.996 127.946C71.0267 130.915 66.9994 132.583 62.8001 132.583C60.7209 132.583 58.662 132.174 56.741 131.378C54.82 130.582 53.0745 129.416 51.6043 127.946C48.6349 124.977 46.9668 120.949 46.9668 116.75C46.9668 112.551 48.6349 108.524 51.6043 105.554C54.5736 102.585 58.6009 100.917 62.8001 100.917Z" fill="black"/>
<path d="M23 81L21 86V105H27V109H31L35 105H40L47 98V81H23ZM34 96H31V87.9375H34V96ZM41 96H38V87.9375H41V96Z" fill="black"/>
<path d="M71.0177 18.9721C75.436 18.9721 79.0177 22.3897 78.3927 27.0302C78.2632 27.992 78.1788 28.9979 78.1264 29.8277C78.1264 29.8277 78.2766 30.0935 78.9179 30.0935C79.2974 30.0935 79.8489 29.9971 80.6427 29.6964C80.7824 29.6434 80.9163 29.6188 81.0413 29.6188C81.5361 29.6188 81.8922 29.9895 81.9239 30.3857C81.9506 30.7176 81.6387 31.0857 81.4007 31.1988C80.5404 31.6077 78.4638 31.8277 78.4638 33.2387C78.4638 34.6497 79.8614 36.1547 81.0177 37.2208C82.1739 38.2868 85 38.5376 85 38.5376C85 38.5376 85.0177 39.8858 83.0177 40.3562C81.0177 40.8264 81.0114 40.7132 80.9396 41.2184C80.8062 42.1546 80.8436 42.5546 80.2366 42.5546C80.1321 42.5546 80.0084 42.5427 79.8614 42.5197C79.3471 42.439 78.659 42.2919 77.9164 42.2919C77.2154 42.2919 76.4657 42.423 75.7677 42.8645C74.3302 43.7738 73.1875 44.9966 71 44.9966C68.8125 44.9966 67.6875 43.7738 66.25 42.8645C65.5519 42.4229 64.8024 42.2919 64.1013 42.2919C63.3588 42.2919 62.6706 42.439 62.1562 42.5197C62.0093 42.5426 61.8856 42.5546 61.7811 42.5546C61.1743 42.5546 61.2114 42.1546 61.0781 41.2184C61.0062 40.7132 61 40.8266 59 40.3563C57 39.8859 57 38.5377 57 38.5377C57 38.5377 59.8438 38.2869 61 37.2209C62.1562 36.1548 63.5539 34.6501 63.5539 33.2391C63.5539 31.8281 61.4773 31.6084 60.6169 31.1996C60.379 31.0864 60.0672 30.7191 60.0938 30.3872C60.1254 29.9912 60.481 29.6216 60.9754 29.6216C61.1007 29.6216 61.2349 29.6454 61.375 29.6984C62.1718 30.0003 62.7243 30.0948 63.1039 30.0948C63.7416 30.0948 63.8912 29.8278 63.8912 29.8278C63.8389 28.9981 63.7546 27.9921 63.6251 27.0303C63.0001 22.3898 66.5818 18.9721 71.0001 18.9721M71.0177 18H71C68.4317 18 66.0491 19.013 64.4631 20.8338C62.9642 22.5547 62.3146 24.7929 62.634 27.1646C62.7225 27.8214 62.7877 28.4915 62.8346 29.0782C62.5865 29.0433 62.2293 28.9533 61.7282 28.7636C61.4804 28.6697 61.2271 28.6201 60.9755 28.6201C59.9979 28.6201 59.1728 29.3609 59.0969 30.3078C59.0328 31.1089 59.6116 31.8324 60.1888 32.1068C60.4545 32.233 60.7626 32.3304 61.0888 32.4338C61.508 32.5666 61.9831 32.717 62.2946 32.9152C62.5538 33.0801 62.5538 33.1757 62.5538 33.2391C62.5538 33.7803 62.1669 34.7823 60.3233 36.4821C59.6671 37.0871 57.8824 37.4509 56.9116 37.5381L56.0008 37.6201L56 38.5377C56 38.6426 56.0195 39.1968 56.4053 39.8076C56.7332 40.3267 57.4099 41.0128 58.7717 41.3331C59.0881 41.4072 59.4049 41.4791 59.7222 41.5489C59.8664 41.5809 60.0069 41.6121 60.1256 41.6397L60.1307 41.6787C60.1869 42.1164 60.2314 42.4621 60.4052 42.7881C60.5585 43.0756 60.9411 43.5578 61.7811 43.5578C61.936 43.5578 62.1092 43.5424 62.3106 43.5109C62.4151 43.4944 62.5222 43.4763 62.6356 43.4569C63.0804 43.3812 63.5845 43.2952 64.1013 43.2952C64.7436 43.2952 65.2721 43.432 65.7167 43.7132C65.9999 43.8924 66.2724 44.0865 66.561 44.292C67.6854 45.0926 68.9599 46 71 46C73.0454 46 74.3308 45.0886 75.4649 44.2846C75.7509 44.0819 76.0211 43.8903 76.301 43.7132C76.7456 43.432 77.274 43.2952 77.9164 43.2952C78.4332 43.2952 78.9372 43.3812 79.3819 43.4569C79.4953 43.4763 79.6025 43.4945 79.7071 43.5109C79.9085 43.5424 80.0816 43.5578 80.2366 43.5578C81.0766 43.5578 81.4592 43.0756 81.6125 42.7882C81.7863 42.4624 81.8307 42.1166 81.887 41.6789L81.8921 41.6396C82.0107 41.6121 82.1514 41.5808 82.2956 41.5489C82.547 41.4931 82.8599 41.4238 83.2459 41.333C84.6116 41.0118 85.2841 40.3224 85.6078 39.8006C85.9889 39.1864 86.0013 38.6296 85.9999 38.5243L85.9881 37.6179L85.0882 37.5381C84.1249 37.4508 82.3507 37.0869 81.6944 36.4818C80.6768 35.5436 79.4639 34.2194 79.4639 33.2385C79.4639 33.1751 79.4639 33.0794 79.7232 32.9144C80.0348 32.716 80.5101 32.5654 80.9293 32.4325C81.2554 32.3291 81.5633 32.2314 81.8289 32.1052C82.4062 31.8309 82.9851 31.1066 82.9209 30.3048C82.8449 29.3569 82.0194 28.6144 81.0414 28.6144C80.7901 28.6144 80.5371 28.6619 80.2897 28.7556C79.788 28.9457 79.4307 29.0313 79.1831 29.0658C79.2298 28.4833 79.2951 27.8083 79.3838 27.1489C79.7032 24.7771 79.0538 22.5546 77.5548 20.8337C75.9686 19.013 73.586 18 71.0177 18Z" fill="black"/>
<path d="M71.0001 30.3125C69.6977 30.3125 68.4623 29.7944 67.5215 28.8536C67.4742 28.8073 67.4366 28.7522 67.4108 28.6913C67.385 28.6304 67.3715 28.565 67.3711 28.4989C67.3707 28.4328 67.3835 28.3672 67.4086 28.306C67.4338 28.2449 67.4708 28.1893 67.5175 28.1425C67.5643 28.0958 67.6199 28.0588 67.681 28.0336C67.7422 28.0085 67.8078 27.9957 67.8739 27.9961C67.94 27.9965 68.0054 28.01 68.0663 28.0358C68.1272 28.0616 68.1823 28.0992 68.2286 28.1465C68.9806 28.8984 69.9648 29.3125 71.0001 29.3125C72.0243 29.3125 73.0095 28.8975 73.7741 28.1439C73.869 28.0528 73.9959 28.0027 74.1274 28.0045C74.2589 28.0063 74.3844 28.0598 74.4767 28.1535C74.569 28.2471 74.6207 28.3734 74.6206 28.5049C74.6204 28.6364 74.5685 28.7626 74.476 28.8561C73.5231 29.7953 72.2886 30.3125 71.0001 30.3125Z" fill="black"/>
<path d="M68 27C68.5523 27 69 26.3284 69 25.5C69 24.6716 68.5523 24 68 24C67.4477 24 67 24.6716 67 25.5C67 26.3284 67.4477 27 68 27Z" fill="black"/>
<path d="M74 27C74.5523 27 75 26.3284 75 25.5C75 24.6716 74.5523 24 74 24C73.4477 24 73 24.6716 73 25.5C73 26.3284 73.4477 27 74 27Z" fill="black"/>
</svg>
