<svg width="150" height="150" viewBox="0 0 150 150" fill="none" xmlns="http://www.w3.org/2000/svg">
<rect x="1.75404" y="1.20459" width="55.6862" height="27.846" transform="matrix(0.983747 -0.17956 0.185613 0.982623 6.09105 42.414)" stroke="black" stroke-width="3"/>
<path d="M42.5126 46.9904C42.7518 48.2564 42.6305 49.4165 42.2929 50.2569C41.95 51.1103 41.4526 51.5023 40.9976 51.5853C40.5425 51.6684 39.9352 51.4781 39.3035 50.8026C38.6814 50.1373 38.1446 49.0973 37.9054 47.8313C37.6663 46.5653 37.7875 45.4052 38.1252 44.5648C38.4681 43.7114 38.9654 43.3194 39.4205 43.2364C39.8755 43.1533 40.4829 43.3436 41.1146 44.0191C41.7367 44.6844 42.2735 45.7244 42.5126 46.9904Z" stroke="black" stroke-width="2"/>
<line y1="-1" x2="18.0171" y2="-1" transform="matrix(0.783292 0.621654 -0.634696 0.772762 34.0146 50.4653)" stroke="black" stroke-width="2"/>
<line y1="-1" x2="19.4314" y2="-1" transform="matrix(0.562832 -0.826572 0.83539 0.549657 37.0122 63.8394)" stroke="black" stroke-width="2"/>
<path d="M54.439 49.8131C54.6669 51.0193 54.015 51.7965 53.4452 51.9005C52.8755 52.0045 51.9833 51.5091 51.7554 50.303C51.5276 49.0968 52.1795 48.3196 52.7492 48.2156C53.3189 48.1116 54.2112 48.6069 54.439 49.8131Z" stroke="black" stroke-width="2"/>
<line y1="-1" x2="10.9077" y2="-1" transform="matrix(0.76477 0.644303 -0.611434 0.791295 49.5354 52.8235)" stroke="black" stroke-width="2"/>
<line y1="-1" x2="11.7188" y2="-1" transform="matrix(0.537766 -0.843094 0.818714 0.574202 51.1296 61.2627)" stroke="black" stroke-width="2"/>
<path d="M27.9544 46.374C28.2782 48.0882 27.1191 49.7756 25.3106 50.1057C23.5021 50.4358 21.804 49.2699 21.4802 47.5557C21.1564 45.8415 22.3155 44.1541 24.124 43.824C25.9325 43.4939 27.6306 44.6598 27.9544 46.374Z" stroke="black" stroke-width="2"/>
<line y1="-1" x2="19.7975" y2="-1" transform="matrix(0.76477 0.644303 -0.611434 0.791295 18.4407 51.7102)" stroke="black" stroke-width="2"/>
<line y1="-1" x2="21.2696" y2="-1" transform="matrix(0.537766 -0.843094 0.818714 0.574202 22.0691 66.5667)" stroke="black" stroke-width="2"/>
<rect x="78.9784" y="31.2698" width="64.704" height="33.16" transform="rotate(13.4554 78.9784 31.2698)" stroke="black" stroke-width="3"/>
<path d="M73.7275 56.7354C89.0413 47.8497 89.2166 45.3391 89.9269 48.5933C90.6373 51.8475 95.2789 61.7854 97.8617 61.6589C100.444 61.5323 104.024 65.6857 106.412 63.7046C108.801 61.7236 117.931 59.1222 119.702 60.6095C121.474 62.0968 122.918 68.5046 124.729 68.9379C126.54 69.3711 126.124 72.8876 130.172 73.7497C133.41 74.4394 134.611 73.5709 134.806 73.0505" stroke="black" stroke-width="3"/>
<path d="M132.194 53.9604C131.816 55.542 130.176 56.5635 128.478 56.1574C126.781 55.7513 125.781 54.0981 126.159 52.5164C126.537 50.9348 128.178 49.9133 129.875 50.3194C131.572 50.7255 132.573 52.3787 132.194 53.9604Z" stroke="black" stroke-width="3"/>
<rect x="38.4005" y="72.7098" width="73.0067" height="39.0358" transform="rotate(5.776 38.4005 72.7098)" stroke="black" stroke-width="3"/>
<path d="M35.8795 106.45C38.0589 105.895 39.7106 107.161 40.264 107.864L44.0698 107.279L46.4453 108.489L50.5605 107.935L55.254 109.38L61.5901 110.021L66.787 109.577L70.6504 109.967L75.1895 111.396L79.3855 110.042L84.4618 112.334L87.4951 111.671L90.1797 112.913C91.4238 112.446 94.0667 111.528 94.6848 111.59C95.303 111.653 97.415 111.866 98.3937 111.965L100.013 112.937L103.258 113.266L104.552 114.367L106.503 113.594" stroke="black" stroke-width="2"/>
<path d="M57.3275 108.944L49.4665 100.227L66.9294 101.993M81.1264 111.351L91.3465 104.463L66.9294 101.993M69.2457 82.1812L69.1529 82.9748M66.9294 101.993L67.1911 99.7544M69.1529 82.9748C69.8653 83.4392 74.771 93.41 77.1347 98.3373L67.1911 99.7544M69.1529 82.9748L67.1911 99.7544" stroke="black" stroke-width="2"/>
<mask id="path-17-inside-1_225_2" fill="white">
<ellipse cx="58.4776" cy="92.4941" rx="1.94165" ry="1.85445" transform="rotate(5.776 58.4776 92.4941)"/>
</mask>
<path d="M58.4195 92.4882C58.4225 92.4584 58.4326 92.4278 58.447 92.4025C58.4605 92.3788 58.4744 92.3654 58.4828 92.3589C58.4993 92.3461 58.506 92.3506 58.4922 92.3492L58.0897 96.3289C60.1684 96.5392 62.1764 95.0939 62.3992 92.8907L58.4195 92.4882ZM58.4922 92.3492C58.4784 92.3478 58.486 92.3447 58.4995 92.3606C58.5064 92.3686 58.5174 92.3845 58.5259 92.4105C58.5349 92.4382 58.5387 92.4701 58.5356 92.4999L54.5559 92.0974C54.3331 94.3005 56.011 96.1187 58.0897 96.3289L58.4922 92.3492ZM58.5356 92.4999C58.5326 92.5297 58.5226 92.5603 58.5082 92.5856C58.4946 92.6093 58.4807 92.6227 58.4724 92.6292C58.4559 92.642 58.4491 92.6375 58.4629 92.6389L58.8655 88.6592C56.7868 88.4489 54.7788 89.8942 54.5559 92.0974L58.5356 92.4999ZM58.4629 92.6389C58.4767 92.6403 58.4692 92.6434 58.4556 92.6275C58.4487 92.6195 58.4378 92.6036 58.4293 92.5776C58.4202 92.5499 58.4165 92.518 58.4195 92.4882L62.3992 92.8907C62.6221 90.6876 60.9442 88.8694 58.8655 88.6592L58.4629 92.6389Z" fill="black" mask="url(#path-17-inside-1_225_2)"/>
<line y1="-1" x2="7.59616" y2="-1" transform="matrix(0.443718 0.896166 -0.881567 0.472059 54.5959 94.2793)" stroke="black" stroke-width="2"/>
<line y1="-1" x2="8.27324" y2="-1" transform="matrix(-0.763511 0.645794 -0.618773 -0.78557 60.3948 94.0571)" stroke="black" stroke-width="2"/>
</svg>
