<svg width="150" height="150" viewBox="0 0 150 150" fill="none" xmlns="http://www.w3.org/2000/svg">
<path d="M27.6245 41.7022C26.3842 42.2829 25.4606 42.4765 24.8712 43.0307C22.6369 45.0367 20.5166 47.1662 18.5203 49.4093C16.761 51.4944 17.3855 53.7115 19.3999 55.2599C21.9772 57.2395 22.6281 59.307 20.5786 61.9816C20.3996 62.2136 20.279 62.4851 20.2267 62.7734C19.6902 66.2926 17.7814 67.4276 14.254 67.0844C11.1313 66.7853 9.73273 68.4745 9.66236 71.6858C9.61838 74.0085 9.57439 76.3399 9.66236 78.6626C9.78551 81.6099 11.3249 83.3871 14.2364 83.0616C18.0189 82.6129 19.7693 84.1614 20.3939 87.6102C20.4155 87.9013 20.5092 88.1825 20.6666 88.4284C22.8393 91.0062 21.5462 92.7834 19.523 94.6926C16.7434 97.2528 16.8841 98.986 19.523 101.784C21.0008 103.315 22.4698 104.854 24.0268 106.306C26.3578 108.479 28.4777 108.637 30.5712 106.227C32.6648 103.816 34.7759 102.866 37.6083 105.013C38.1582 105.424 38.8024 105.69 39.4819 105.787C41.8745 106.139 42.499 107.485 42.4463 109.825C42.3143 114.963 43.3259 115.869 48.5333 115.869C50.2926 115.869 52.0519 115.869 53.8111 115.869C56.9954 115.799 58.7195 114.426 58.4468 111.294C58.1477 107.775 59.2473 105.848 62.7218 105.285C63.1063 105.229 63.4697 105.074 63.7774 104.837C66.3195 102.76 68.0612 103.702 70.0052 105.963C72.3978 108.743 74.5793 108.602 77.183 106.033C78.7047 104.538 80.2265 103.042 81.6867 101.502C83.8594 99.2147 84.0793 96.9008 81.6867 94.9741C78.9246 92.7306 78.476 90.5223 80.4728 87.6806C80.7591 87.284 80.9489 86.8261 81.027 86.3433C81.37 83.4399 83.1909 83.0264 85.733 83.1144C89.964 83.2552 91.2131 81.8563 91.2483 77.5717C91.2483 75.5393 91.3099 73.4982 91.2483 71.4658C91.1515 68.4833 89.6738 66.8117 86.727 67.0669C83.2085 67.4188 81.2557 66.3278 80.6663 62.7998C80.5081 61.9343 80.1497 61.1178 79.6196 60.4156C78.5464 58.9375 78.7399 57.7762 80.1473 56.6852C80.7368 56.1796 81.2868 55.6296 81.7922 55.04C83.8682 52.7437 83.8946 50.9137 81.7922 48.7054C80.1209 46.9458 78.4145 45.2302 76.6552 43.5674C74.4473 41.4911 72.6177 41.2799 70.6473 43.5674C68.2107 46.418 66.1084 46.3916 62.7306 44.9751C59.3528 43.5586 57.9982 42.2213 58.3764 38.5701C58.6755 35.6844 57.0482 34.3383 54.1366 34.2327C51.7176 34.1448 49.2986 34.1448 46.8708 34.2327C43.8185 34.2943 42.244 35.658 42.4727 38.7109C42.7541 42.1421 41.8481 44.2624 38.224 44.7727C37.5503 44.8874 36.9138 45.1619 36.368 45.5733C34.3888 47.0426 32.9902 46.4531 31.4772 44.6935C30.299 43.5668 29.008 42.5644 27.6245 41.7022ZM50.0463 50.4122C54.9327 50.3389 59.7304 51.7212 63.829 54.3831C67.9277 57.045 71.1419 60.8662 73.0629 65.3606C74.9838 69.855 75.5246 74.8194 74.6164 79.622C73.7082 84.4247 71.392 88.8486 67.9627 92.3309C64.5333 95.8131 60.1458 98.1963 55.3583 99.1771C50.5708 100.158 45.5997 99.6922 41.0777 97.839C36.5556 95.9859 32.687 92.8291 29.9639 88.7704C27.2409 84.7117 25.7866 79.9345 25.786 75.0466C25.6189 61.7969 36.5351 50.7026 50.0463 50.4122Z" fill="black"/>
<path d="M79.2061 40.2682V40.8489C79.2061 46.2684 79.2061 46.2772 84.6423 46.242C86.4015 46.242 88.0377 45.8901 89.0404 48.3448C90.0432 50.7994 89.6386 52.3039 87.721 53.7995C86.9946 54.4409 86.3017 55.1192 85.6451 55.8319C84.4312 57.002 84.4575 58.1809 85.6451 59.351C86.1201 59.8349 86.6127 60.3012 87.0965 60.7763C92.2511 65.8528 92.2159 65.8176 97.652 61.0051C98.0336 60.7441 98.4699 60.5742 98.9275 60.5086C99.385 60.443 99.8515 60.4834 100.291 60.6268C101.619 61.1986 103.809 60.9435 103.704 63.3981C103.642 64.8498 103.801 66.3103 103.704 67.7971C103.519 70.1374 104.751 70.9116 106.827 70.9028H108.287C115.465 70.9028 115.597 70.9028 115.729 63.794C115.781 61.3394 117.532 61.2338 118.93 60.8027C119.461 60.6468 120.019 60.6061 120.567 60.6835C121.114 60.7609 121.639 60.9545 122.106 61.2514C127.384 65.7912 127.313 65.8352 132.266 61.0051C135.626 57.7058 135.547 57.785 132.222 54.1866C131.087 52.9461 128.941 52.2247 130.058 49.4621C131.069 46.9723 132.239 45.7933 134.887 46.242C135.45 46.33 136.057 46.1893 136.646 46.242C139.452 46.6116 140.622 45.3622 140.314 42.5997C140.314 42.4149 140.314 42.2126 140.314 42.019C140.314 34.7519 140.314 34.6375 133.224 34.3384C130.779 34.2416 130.717 32.4468 130.286 31.0567C130.146 30.5234 130.121 29.9659 130.215 29.4223C130.31 28.8788 130.52 28.3619 130.832 27.907C135.432 22.6898 135.485 22.725 130.489 17.7365C127.164 14.4021 127.155 14.3933 123.716 17.8157C122.097 19.4258 120.848 21.3349 117.936 19.5137C116.406 18.5548 115.755 17.8509 115.781 16.0649C115.869 9.30806 116.371 9.5808 109.351 9.62479C108.384 9.62479 107.416 9.62479 106.448 9.62479C104.689 9.62479 103.765 10.5046 103.748 12.2642C103.644 13.1409 103.644 14.0268 103.748 14.9036C104.628 18.4228 102.261 19.4961 99.6576 20.1824C99.216 20.1908 98.7774 20.1084 98.3688 19.9404C97.9603 19.7725 97.5906 19.5224 97.2826 19.2058C92.2951 14.5957 92.3215 14.5693 87.6066 19.2058C83.9122 22.7778 83.9034 22.8482 87.4835 26.4554C89.0317 28.0126 90.7645 29.2531 89.1372 32.0245C88.1696 33.6697 87.3779 34.6639 85.4603 34.3208C85.3638 34.3118 85.2666 34.3118 85.1701 34.3208C78.7136 34.224 79.1886 33.8545 79.2061 40.2682ZM124.129 40.2682C124.112 43.1127 123.252 45.8882 121.659 48.2443C120.065 50.6005 117.81 52.4316 115.176 53.5065C112.543 54.5814 109.651 54.8518 106.864 54.2837C104.078 53.7156 101.522 52.3343 99.5193 50.3144C97.5169 48.2944 96.1578 45.7264 95.6136 42.9344C95.0694 40.1425 95.3645 37.2518 96.4616 34.6275C97.5588 32.0032 99.4087 29.7629 101.778 28.1894C104.147 26.6159 106.929 25.7798 109.773 25.7867C113.591 25.8215 117.241 27.3623 119.929 30.0741C122.618 32.7859 124.127 36.4494 124.129 40.2682Z" fill="black"/>
<path d="M103.677 88.2084C103.246 88.3074 102.827 88.4549 102.428 88.6483C99.6487 90.4959 97.7047 89.6689 95.6112 87.2142C92.7172 83.8182 92.3653 83.9766 89.2426 87.0559L89.0227 87.2494C84 92.2467 83.9736 92.2731 88.794 97.3671C89.7968 98.4229 90.2454 99.2499 89.3658 100.605C88.8399 101.608 88.4127 102.66 88.0903 103.746C86.1991 103.746 84.2727 103.798 82.3463 103.746C80.1824 103.675 79.1005 104.555 79.1884 106.825C79.2676 108.954 79.25 111.092 79.1884 113.221C79.1445 115.086 80.0681 115.861 81.8273 115.861C82.3111 115.861 82.7949 115.861 83.2787 115.861C88.2399 115.861 88.2399 115.861 90.1838 121.447C88.882 122.565 87.3602 123.911 85.7857 125.213C84.2111 126.515 84.4135 127.852 85.7857 129.119C86.0672 129.392 86.3135 129.691 86.5949 129.955C88.3542 131.591 90.0431 134.354 91.9607 134.503C93.6672 134.662 95.7959 132.146 97.4672 130.536C99.1385 128.926 100.564 130.307 101.865 130.931C102.313 131.179 102.7 131.525 102.997 131.942C103.294 132.359 103.493 132.838 103.581 133.342C103.994 140.433 103.941 140.433 111.189 140.381C115.676 140.381 115.746 140.381 115.693 135.867C115.693 133.298 115.35 130.65 118.886 130.298C120 130.219 121.116 130.431 122.123 130.914C122.95 131.301 123.522 132.225 124.208 132.911C126.847 135.55 127.172 135.55 129.794 132.99C130.832 131.981 131.858 130.955 132.872 129.911C135.406 127.272 135.3 127.06 132.793 124.271C131.553 122.908 129.108 122.204 129.846 119.494C130.585 116.784 131.843 115.245 134.887 115.825C135.853 116.087 136.874 116.06 137.825 115.746C138.808 115.241 139.633 114.473 140.209 113.529C140.56 112.966 140.288 112.016 140.288 111.242C140.288 104.089 140.288 103.966 133.251 103.816C130.788 103.763 130.709 102.004 130.304 100.605C130.031 99.637 130.541 98.4317 130.735 97.3495C130.735 97.1912 131.016 97.0856 131.131 96.9272C132.345 95.2908 134.913 92.7042 134.526 92.1499C132.661 89.4225 130.049 87.1878 127.586 84.9092C127.304 84.6628 126.143 85.0851 125.598 85.481C124.775 86.1583 124.008 86.8996 123.302 87.6981C120.848 90.1792 119.352 90.4343 116.652 88.402C116.027 87.9357 115.852 86.5632 115.843 85.613C115.799 78.5746 116.318 79.2345 109.351 79.2169C108.471 79.2169 107.592 79.2696 106.712 79.2169C104.425 79.0761 103.589 80.2286 103.686 82.3929C103.739 84.2581 103.677 86.0969 103.677 88.2084ZM109.615 124.192C106.768 124.168 103.992 123.299 101.638 121.696C99.285 120.093 97.46 117.828 96.3942 115.187C95.3285 112.546 95.0699 109.648 95.6512 106.861C96.2325 104.073 97.6276 101.52 99.66 99.5254C101.692 97.5309 104.271 96.1842 107.068 95.6557C109.866 95.1272 112.758 95.4408 115.378 96.5566C117.997 97.6725 120.227 99.5405 121.785 101.924C123.343 104.308 124.158 107.101 124.129 109.948C124.129 111.842 123.752 113.717 123.019 115.463C122.287 117.209 121.213 118.792 119.862 120.118C118.51 121.444 116.908 122.488 115.149 123.187C113.389 123.887 111.508 124.228 109.615 124.192Z" fill="black"/>
<path d="M50.4333 62.9054C48.8316 62.8934 47.2437 63.2022 45.7633 63.8138C44.2828 64.4253 42.9398 65.3271 41.8133 66.4661C40.6869 67.605 39.7999 68.958 39.2046 70.4453C38.6093 71.9326 38.3177 73.524 38.3471 75.1258C38.3598 76.7306 38.6883 78.3172 39.3141 79.795C39.9398 81.2728 40.8505 82.6129 41.994 83.7387C43.1376 84.8645 44.4916 85.754 45.9789 86.3563C47.4661 86.9587 49.0575 87.2622 50.662 87.2494C57.1361 87.3198 62.7129 81.5395 62.6953 74.7915C62.5839 71.6091 61.2447 68.5936 58.9585 66.3776C56.6723 64.1615 53.6169 62.9171 50.4333 62.9054Z" fill="black"/>
<path d="M109.782 34.2769C108.599 34.2841 107.445 34.643 106.467 35.3078C105.488 35.9727 104.73 36.9135 104.287 38.0108C103.845 39.108 103.739 40.312 103.982 41.4698C104.226 42.6275 104.808 43.6867 105.655 44.5127C106.502 45.3386 107.575 45.894 108.738 46.1083C109.902 46.3225 111.102 46.1859 112.188 45.7159C113.273 45.2458 114.195 44.4635 114.835 43.4684C115.474 42.4734 115.804 41.3105 115.781 40.1276C115.749 38.5601 115.102 37.0681 113.979 35.9736C112.857 34.879 111.35 34.2697 109.782 34.2769Z" fill="black"/>
<path d="M109.967 115.861C111.572 115.802 113.088 115.109 114.182 113.932C115.275 112.756 115.857 111.193 115.799 109.588C115.741 107.982 115.047 106.466 113.871 105.372C112.695 104.278 111.132 103.696 109.527 103.754C107.964 103.874 106.502 104.571 105.424 105.709C104.346 106.847 103.73 108.346 103.695 109.913C103.75 111.53 104.439 113.059 105.612 114.172C106.786 115.285 108.35 115.892 109.967 115.861Z" fill="black"/>
</svg>
