<svg width="150" height="150" viewBox="0 0 150 150" fill="none" xmlns="http://www.w3.org/2000/svg">
<g clip-path="url(#clip0_223_34)">
<path d="M133.018 69.5366C132.614 69.861 132.186 69.878 131.692 69.7256C129.859 69.1599 128.014 68.6286 126.174 68.0841L125.845 67.9867C125.354 67.7892 125.115 67.3473 125.252 66.9038C125.39 66.4603 125.84 66.2189 126.354 66.3661C127.925 66.8189 129.488 67.2937 131.056 67.7576L131.675 67.9408L145.634 20.7742L102.807 8.09961C102.608 8.04062 102.406 7.98097 102.208 7.91383C101.744 7.74122 101.555 7.38588 101.662 6.92271C101.771 6.45986 102.127 6.24523 102.604 6.28415C102.772 6.30838 102.937 6.3486 103.095 6.40527C117.604 10.6992 132.113 14.9905 146.622 19.2774C147.118 19.4242 147.473 19.6617 147.633 20.158L133.019 69.5369L133.018 69.5366ZM89.9685 21.2415L87.7695 20.5907C86.9962 20.3521 86.7997 19.9874 87.0245 19.2195L89.4972 10.8644C89.7279 10.0848 90.0798 9.89577 90.8582 10.1213L93.074 10.777L93.4388 9.54447L91.5398 8.98247C91.3188 8.9268 91.1032 8.85323 90.8928 8.76177C90.4594 8.54716 90.2798 8.17894 90.4385 7.72106C90.4654 7.61907 90.513 7.52368 90.5782 7.44074C90.6434 7.35779 90.7249 7.28904 90.8177 7.2387C90.9105 7.18836 91.0126 7.1575 91.1177 7.148C91.2229 7.1385 91.3289 7.15057 91.4293 7.18346C92.0367 7.33647 92.634 7.52784 93.2363 7.70243L93.9573 7.91583L94.7425 5.26278C95.0338 4.27851 95.3451 4.11152 96.3326 4.40379L98.5216 5.05162C99.311 5.28523 99.6088 5.67384 99.4336 6.23267C99.26 6.79071 98.8333 6.91988 98.0706 6.69902L96.3003 6.17513L82.3446 53.3305L121.925 65.0445C122.146 65.1013 122.363 65.1704 122.574 65.2548C122.758 65.3205 122.911 65.453 123.002 65.626C123.093 65.7989 123.115 65.9997 123.065 66.1884C123.043 66.3809 122.948 66.5577 122.8 66.6828C122.652 66.8078 122.462 66.8716 122.268 66.8612C122.059 66.8553 121.854 66.819 121.656 66.753L81.3732 54.8312C80.4327 54.5529 80.2573 54.2236 80.5394 53.2707L85.7066 35.8111L83.5814 35.1822C82.6319 34.9012 82.4704 34.5991 82.7561 33.6339L85.1643 25.4969C85.4231 24.6222 85.7627 24.4417 86.6427 24.6985L88.7589 25.3248L89.1197 24.1056L86.9173 23.4538C86.2421 23.254 85.948 22.824 86.112 22.3068C86.2768 21.7912 86.7332 21.6234 87.3728 21.8078L89.5998 22.4669L89.9674 21.2412L89.9685 21.2415ZM90.9924 11.9638L88.8805 19.0997L90.4704 19.5703L92.5823 12.4343L90.9924 11.9638ZM86.1658 34.1442L88.2813 26.996L86.6847 26.5234L84.5691 33.6717L86.1658 34.1442Z" fill="black"/>
<path d="M131.423 20.7763L132.722 21.1607L133.068 19.993C133.269 19.3532 133.678 19.0836 134.193 19.2397C134.707 19.3944 134.892 19.8212 134.702 20.4853L134.365 21.625L135.679 22.0141L136.015 20.8799C136.215 20.2372 136.615 19.9628 137.131 20.0996C137.647 20.2388 137.844 20.6876 137.663 21.336C137.56 21.6827 137.465 22.0303 137.37 22.3782C137.368 22.4421 137.375 22.5062 137.388 22.5685C137.769 22.6811 138.186 22.7959 138.598 22.9263C139.208 23.1254 139.406 23.483 139.244 24.1005C139.136 24.5186 138.999 24.9282 138.86 25.3957C139.342 25.5382 139.759 25.6507 140.175 25.7847C140.719 25.9616 140.977 26.3966 140.836 26.8683C140.695 27.3411 140.24 27.5616 139.688 27.4153C139.27 27.3038 138.859 27.17 138.413 27.0382L138.025 28.3501L139.27 28.7186C139.833 28.8975 140.093 29.2944 139.972 29.7742C139.851 30.2541 139.377 30.5093 138.793 30.3547C138.391 30.2502 137.995 30.1185 137.552 29.9872L137.163 31.3003L138.427 31.6745C138.98 31.8503 139.233 32.2718 139.093 32.7498C138.954 33.2269 138.5 33.4489 137.946 33.307C137.527 33.2 137.118 33.0618 136.672 32.9299L136.283 34.243L137.536 34.6138C138.102 34.7933 138.356 35.1908 138.226 35.6731C138.098 36.1558 137.646 36.3918 137.101 36.2585C136.679 36.1542 136.264 36.0109 135.773 35.8655C135.643 36.3028 135.533 36.6996 135.41 37.0924C135.194 37.7634 134.833 37.9667 134.154 37.7792L132.913 37.4117C132.773 37.8826 132.659 38.3002 132.528 38.7114C132.348 39.2652 131.934 39.5088 131.451 39.3623C130.968 39.2169 130.758 38.7847 130.896 38.2212C130.95 37.9987 131.026 37.7839 131.091 37.5647L131.271 36.9551L129.957 36.5661L129.602 37.7629C129.409 38.3747 129.027 38.6338 128.523 38.4957C128.018 38.3585 127.797 37.9023 127.971 37.2605C128.075 36.8779 128.195 36.501 128.328 36.0548L127.015 35.6664L126.643 36.9258C126.459 37.5064 126.082 37.7512 125.593 37.6285C125.083 37.5007 124.853 37.0592 125.005 36.4606C125.107 36.0578 125.241 35.662 125.371 35.2224L124.066 34.836C123.943 35.2499 123.833 35.6478 123.708 36.044C123.513 36.6515 123.118 36.8996 122.611 36.7461C122.106 36.5941 121.919 36.1678 122.077 35.5479C122.127 35.345 122.196 35.1475 122.254 34.9484L122.442 34.3131L121.191 33.9426C120.561 33.7405 120.347 33.3572 120.515 32.7208C120.62 32.3226 120.749 31.9289 120.887 31.4636C120.428 31.3277 120.007 31.2179 119.604 31.0838C119.026 30.8874 118.776 30.4326 118.949 29.9376C119.114 29.4766 119.548 29.2926 120.12 29.4534C120.519 29.5629 120.914 29.6883 121.341 29.8146L121.727 28.5082L120.543 28.1576C119.92 27.9586 119.646 27.5212 119.816 27.0131C119.978 26.5271 120.416 26.3514 121.032 26.524L122.072 26.8197C122.122 26.8247 122.173 26.8226 122.223 26.8143L122.593 25.5638C122.197 25.4468 121.784 25.3342 121.377 25.2039C120.797 25.0153 120.527 24.5803 120.679 24.0913C120.832 23.6037 121.283 23.4088 121.884 23.5757C122.248 23.6834 122.614 23.7917 122.981 23.8857C123.014 23.8882 123.049 23.8863 123.082 23.8826L123.455 22.621L122.433 22.3184C121.688 22.0981 121.388 21.7147 121.535 21.1794C121.683 20.6429 122.168 20.4615 122.941 20.6868L123.979 20.994C124.114 20.5377 124.227 20.116 124.359 19.7122C124.559 19.1097 124.934 18.9081 125.547 19.069C125.947 19.1751 126.342 19.3043 126.836 19.4504C126.964 19.0198 127.07 18.6268 127.195 18.2369C127.4 17.5992 127.812 17.3368 128.33 17.5021C128.846 17.6682 129.008 18.075 128.837 18.7031C128.732 19.0857 128.612 19.4614 128.486 19.8865L129.791 20.2725L130.118 19.1652C130.33 18.4822 130.736 18.2046 131.268 18.3705C131.801 18.5379 131.954 18.9531 131.764 19.628C131.661 19.9865 131.549 20.3465 131.422 20.776L131.423 20.7763ZM137.347 24.3748L125.793 20.9554L122.378 32.4948L133.931 35.9139L137.346 24.3745L137.347 24.3748ZM130.193 54.8889C130.613 55.0131 131.01 55.1234 131.404 55.2474C132 55.4384 132.262 55.8541 132.11 56.3454C131.958 56.8358 131.503 57.0368 130.903 56.8762C130.504 56.7704 130.113 56.6426 129.654 56.5067C129.56 56.8266 129.5 57.0815 129.412 57.3255C129.227 57.8278 128.861 58.0225 128.335 57.9106C128.169 57.8749 128.008 57.8139 127.845 57.7655L109.049 52.2028C107.841 51.8452 107.747 51.68 108.049 50.4691C108.076 50.3797 108.079 50.2858 108.104 50.1251C107.696 50.0045 107.3 49.8957 106.908 49.7712C106.319 49.5788 106.043 49.1504 106.18 48.6678C106.315 48.1848 106.776 47.9719 107.372 48.1315C107.74 48.228 108.106 48.3364 108.468 48.4364C108.501 48.446 108.54 48.4258 108.664 48.4054C108.721 48.2108 108.781 47.9777 108.858 47.75C109.07 47.1401 109.408 46.9615 110.046 47.1175C110.211 47.1592 110.373 47.2143 110.539 47.2633L128.894 52.6955C130.5 53.1747 130.5 53.1747 130.192 54.89L130.193 54.8889ZM128.468 54.393L110.307 49.0181L109.832 50.6232L127.993 55.998L128.468 54.393ZM128.229 61.4883C128.668 61.6182 129.072 61.7257 129.466 61.8545C130.044 62.0498 130.305 62.498 130.145 62.9799C129.985 63.4629 129.563 63.6469 128.987 63.4888C128.587 63.3801 128.192 63.2535 127.704 63.109C127.618 63.3998 127.555 63.6489 127.473 63.8909C127.271 64.4661 126.931 64.6477 126.322 64.5017C126.138 64.4592 125.959 64.394 125.776 64.34L107.142 58.8254C105.844 58.441 105.793 58.353 106.11 57.0176C106.131 56.9482 106.13 56.8652 106.148 56.7125L104.913 56.347C104.354 56.168 104.095 55.763 104.224 55.2854C104.353 54.8079 104.807 54.57 105.36 54.7056C105.78 54.8081 106.192 54.9518 106.688 55.0986C106.774 54.8078 106.835 54.5511 106.923 54.3045C107.116 53.7742 107.484 53.5777 108.038 53.7051C108.204 53.7435 108.366 53.8022 108.529 53.8506L127.273 59.3978C128.512 59.7646 128.6 59.9207 128.281 61.1743C128.26 61.2566 128.254 61.3302 128.229 61.4883ZM107.866 57.2344L126.032 62.6106L126.507 61.0067L108.341 55.6305L107.866 57.2356L107.866 57.2344ZM106.469 12.1867C106.718 11.6814 106.983 11.159 107.695 11.3975C108.336 11.6117 108.301 12.1389 108.2 12.7355L108.902 12.9433C109.48 13.1386 109.686 13.483 109.559 14.0746C109.52 14.2612 109.452 14.4392 109.398 14.6215L103.903 33.1862C103.498 34.5563 103.4 34.615 102.033 34.2845C101.965 34.2743 101.898 34.2688 101.831 34.2685C101.598 34.7787 101.296 35.2794 100.613 35.0466C100.001 34.8414 99.9625 34.3226 100.131 33.7119L99.3472 33.48C98.8282 33.3081 98.6403 32.935 98.7347 32.4143C98.779 32.2301 98.8328 32.0483 98.8959 31.8696L104.439 13.1406C104.803 11.9102 104.956 11.8242 106.222 12.1477C106.285 12.164 106.36 12.1704 106.468 12.1878L106.469 12.1867ZM106.03 13.9082L100.66 32.0523L102.281 32.5321L107.651 14.388L106.03 13.9082ZM99.8543 10.2304C100.19 9.49634 100.506 9.27972 101.002 9.4121C101.499 9.54448 101.686 9.92207 101.579 10.775L102.201 10.9589C102.879 11.1767 103.077 11.5369 102.891 12.2068L97.2189 31.3721C96.8647 32.5689 96.6889 32.6653 95.4737 32.3397C95.3998 32.3178 95.3237 32.3075 95.256 32.2935C94.7169 33.0864 94.4162 33.2797 93.9519 33.079C93.3886 32.8344 93.3291 32.3692 93.514 31.7524C93.2341 31.6696 92.9633 31.6052 92.7045 31.5128C92.1863 31.3218 92.0026 30.9754 92.1232 30.4443C92.1604 30.2777 92.2199 30.1177 92.2689 29.9522L97.8111 11.2253C98.1997 9.91222 98.2986 9.85389 99.6035 10.189C99.6713 10.2066 99.7447 10.2138 99.854 10.2315L99.8543 10.2304ZM95.6424 30.5722L101.013 12.427L99.4058 11.9515L94.0357 30.0967L95.6424 30.5722ZM111.492 43.8025L106.791 42.4111C105.989 42.1738 105.798 41.8156 106.034 41.0059L107.182 37.1259C107.42 36.3206 107.771 36.1349 108.585 36.3758L118.04 39.1739C118.82 39.4049 119.002 39.7483 118.772 40.5352L117.592 44.5215C117.383 45.2273 117.006 45.4283 116.304 45.2242C114.697 44.7546 113.095 44.2756 111.491 43.8011L111.492 43.8025ZM107.879 40.9072L116.117 43.3454L116.913 40.6577L108.674 38.2195L107.879 40.9072ZM95.2474 49.0281L96.6212 44.3864C96.8856 43.4927 97.1987 43.3238 98.0943 43.5853L101.973 44.7331C102.747 44.9621 102.941 45.3298 102.712 46.1027L99.9171 55.5472C99.6897 56.3156 99.3246 56.5165 98.5478 56.2939C97.2164 55.9084 95.8873 55.5151 94.5595 55.1136C93.8115 54.8922 93.6199 54.5314 93.843 53.7776L95.2474 49.0281ZM95.7072 53.6261L98.4258 54.4307L100.856 46.2199L98.1439 45.4173L95.7083 53.6265L95.7072 53.6261ZM87.3138 46.6826L88.719 41.9346C88.9444 41.1729 89.2788 40.9897 90.0342 41.2023C91.3849 41.5923 92.733 41.9913 94.0762 42.3985C94.7894 42.6096 94.9777 42.9816 94.7682 43.6896L91.9406 53.2437C91.7301 53.9551 91.3721 54.1606 90.658 53.9565C89.291 53.5641 87.9249 53.1598 86.56 52.7437C85.8779 52.5345 85.6932 52.1709 85.8921 51.4865C86.3613 49.8846 86.8398 48.2843 87.3135 46.6837L87.3138 46.6826ZM90.4788 52.0934L92.9128 43.8692L90.202 43.0669L87.7657 51.299L90.4777 52.0931L90.4788 52.0934ZM111.076 23.5786C111.255 22.9807 111.609 22.4495 112.091 22.0524C112.573 21.6552 113.162 21.41 113.784 21.3476C114.405 21.2852 115.032 21.4086 115.584 21.7021C116.135 21.9955 116.588 22.4459 116.883 22.9962C117.179 23.5464 117.305 24.1719 117.244 24.7933C117.184 25.4148 116.941 26.0043 116.545 26.4873C116.149 26.9702 115.619 27.3249 115.021 27.5065C114.423 27.688 113.785 27.6883 113.186 27.5071C112.39 27.2582 111.723 26.7073 111.329 25.9729C110.934 25.2384 110.843 24.3788 111.076 23.5786ZM115.487 24.8842C115.591 24.5143 115.544 24.1184 115.356 23.7829C115.169 23.4474 114.856 23.1995 114.487 23.0931C114.123 23.0045 113.739 23.0601 113.416 23.2481C113.093 23.4361 112.855 23.742 112.752 24.1015C112.65 24.4611 112.691 24.8464 112.866 25.1767C113.042 25.5069 113.339 25.7565 113.694 25.8729C113.878 25.9257 114.069 25.9419 114.259 25.9204C114.448 25.899 114.632 25.8403 114.798 25.7479C114.965 25.6555 115.111 25.5311 115.23 25.3819C115.348 25.2326 115.436 25.0615 115.488 24.8783L115.486 24.8839L115.487 24.8842ZM111.059 34.7809C110.463 34.6036 109.932 34.2537 109.534 33.7754C109.137 33.297 108.89 32.7117 108.825 32.0933C108.76 31.475 108.879 30.8513 109.169 30.3012C109.459 29.7511 109.905 29.2992 110.452 29.0025C110.998 28.7059 111.621 28.5779 112.241 28.6346C112.86 28.6913 113.449 28.9303 113.933 29.3213C114.417 29.7124 114.775 30.2379 114.96 30.8315C115.145 31.4251 115.151 32.0602 114.975 32.6565C114.736 33.4561 114.19 34.1285 113.457 34.5266C112.723 34.9247 111.861 35.0162 111.059 34.7809ZM113.327 32.1772C113.381 31.9949 113.399 31.8036 113.379 31.6143C113.359 31.4251 113.301 31.2417 113.209 31.0749C113.118 30.908 112.994 30.7611 112.845 30.6425C112.695 30.524 112.524 30.4363 112.341 30.3844C111.98 30.2886 111.595 30.3373 111.269 30.5201C110.944 30.703 110.702 31.0056 110.596 31.3636C110.49 31.7217 110.528 32.107 110.702 32.4378C110.876 32.7685 111.172 33.0185 111.527 33.1348C111.708 33.1935 111.9 33.2152 112.089 33.1987C112.279 33.1821 112.464 33.1276 112.632 33.0384C112.8 32.9492 112.949 32.8271 113.069 32.6794C113.189 32.5317 113.278 32.3614 113.331 32.1785L113.327 32.1772ZM117.129 14.18C117.933 14.4111 118.612 14.9516 119.017 15.6826C119.422 16.4137 119.52 17.2753 119.289 18.0781C119.058 18.8809 118.518 19.559 117.786 19.9633C117.055 20.3675 116.193 20.4648 115.389 20.2338C114.991 20.1194 114.62 19.9278 114.296 19.67C113.972 19.4122 113.702 19.0932 113.501 18.7312C113.096 18.0002 112.998 17.1385 113.229 16.3357C113.343 15.9382 113.535 15.5671 113.793 15.2437C114.051 14.9202 114.37 14.6507 114.732 14.4505C115.094 14.2504 115.492 14.1235 115.904 14.077C116.315 14.0306 116.731 14.0656 117.129 14.18ZM117.639 17.6214C117.696 17.4402 117.715 17.2495 117.697 17.0605C117.679 16.8716 117.622 16.6882 117.532 16.5212C117.441 16.3543 117.318 16.2071 117.17 16.0885C117.021 15.9698 116.851 15.882 116.668 15.8304C116.309 15.7239 115.923 15.7608 115.591 15.9333C115.259 16.1057 115.007 16.4003 114.888 16.7548C114.773 17.1206 114.808 17.5171 114.986 17.8572C115.163 18.1972 115.468 18.4532 115.834 18.5689C116.2 18.6837 116.597 18.6487 116.937 18.4716C117.277 18.2944 117.533 17.9896 117.648 17.6241L117.639 17.6214ZM130.35 46.0504L129.592 48.6106C129.417 49.2034 128.987 49.4619 128.492 49.308C127.996 49.1553 127.79 48.7171 127.95 48.161C128.444 46.4509 128.949 44.743 129.466 43.0372C129.629 42.4858 130.075 42.2564 130.556 42.4073C131.038 42.5598 131.25 42.9727 131.089 43.5443C130.854 44.375 130.598 45.2138 130.35 46.0504ZM121.726 43.5285C121.478 44.364 121.239 45.2018 120.984 46.0339C120.795 46.6493 120.402 46.9039 119.903 46.765C119.404 46.6257 119.171 46.1832 119.344 45.5813C119.83 43.8884 120.33 42.1994 120.843 40.5145C121.013 39.9418 121.431 39.7115 121.918 39.8471C122.431 39.9904 122.638 40.4105 122.467 41.0205C122.23 41.8604 121.971 42.6985 121.726 43.5285ZM122.98 43.8826C123.227 43.0471 123.465 42.2101 123.721 41.3772C123.901 40.7953 124.28 40.5607 124.775 40.6939C125.269 40.8256 125.522 41.2678 125.352 41.8634C124.865 43.5562 124.365 45.2463 123.852 46.9323C123.679 47.5162 123.221 47.7638 122.728 47.601C122.235 47.4379 122.06 47.0212 122.223 46.4454L122.98 43.8837L122.98 43.8826ZM125.841 44.7477L126.584 42.2389C126.76 41.6439 127.181 41.3964 127.688 41.5536C128.165 41.7032 128.387 42.1376 128.225 42.6967C127.734 44.3882 127.234 46.0794 126.725 47.7668C126.552 48.3506 126.107 48.6107 125.614 48.455C125.119 48.2989 124.925 47.8547 125.097 47.2558C125.343 46.4188 125.594 45.5832 125.841 44.7477ZM96.1881 37.8342C95.897 37.748 95.5974 37.6825 95.3125 37.575C95.1044 37.5009 94.9326 37.3497 94.8329 37.1526C94.7333 36.9555 94.7133 36.7277 94.7771 36.5164C94.8434 36.3053 94.9903 36.1289 95.186 36.0254C95.3816 35.9218 95.6103 35.8995 95.8224 35.9633C96.4135 36.1139 96.998 36.2869 97.5747 36.4819C97.7809 36.5511 97.9526 36.6967 98.0544 36.8887C98.1561 37.0807 98.1802 37.3044 98.1216 37.5135C98.063 37.7227 97.9262 37.9013 97.7394 38.0124C97.5527 38.1235 97.3303 38.1587 97.1183 38.1107C96.8007 38.0398 96.4979 37.9271 96.1889 37.8356L96.1881 37.8342ZM95.3579 40.6929C95.0668 40.6067 94.7701 40.5311 94.4823 40.4337C94.3802 40.4071 94.2844 40.3603 94.2006 40.2961C94.1168 40.2319 94.0467 40.1516 93.9944 40.06C93.9421 39.9683 93.9086 39.8671 93.896 39.7624C93.8834 39.6577 93.8919 39.5515 93.921 39.4501C94.0209 38.981 94.3884 38.7102 94.8472 38.8058C95.5348 38.9473 96.207 39.1487 96.8581 39.4095C97.2927 39.5868 97.4331 40.0176 97.2471 40.4649C97.1834 40.6568 97.0476 40.8164 96.8683 40.9102C96.6891 41.004 96.4804 41.0245 96.2861 40.9676C95.9712 40.8962 95.6681 40.7847 95.3579 40.6929ZM92.1583 34.8643C93.035 35.1238 93.3587 35.5115 93.1781 36.0724C92.9986 36.6336 92.5266 36.7554 91.6966 36.511L91.476 36.4457C90.8006 36.2385 90.5241 35.8355 90.689 35.3029C90.8539 34.7702 91.282 34.6159 91.9479 34.8057L92.1594 34.8646L92.1583 34.8643ZM90.8143 39.3482C90.6687 39.3051 90.5202 39.2721 90.3765 39.2186C89.9264 39.044 89.7328 38.7106 89.8219 38.237C89.8429 38.1304 89.8851 38.029 89.9458 37.9389C90.0066 37.8488 90.0848 37.7717 90.1758 37.7122C90.2668 37.6527 90.3688 37.6119 90.4758 37.5923C90.5827 37.5727 90.6926 37.5746 90.7989 37.598C91.0982 37.6562 91.3933 37.7374 91.6795 37.844C92.2148 38.0268 92.4754 38.4713 92.339 38.9321C92.2023 39.394 91.7515 39.617 91.1974 39.4774L90.8167 39.3647L90.8143 39.3482ZM99.8714 42.0286C99.7258 41.9855 99.5773 41.9525 99.4336 41.8991C98.9837 41.7197 98.7888 41.3907 98.8928 40.9118C98.9082 40.8074 98.9449 40.7073 99.0005 40.6177C99.0562 40.528 99.1296 40.4507 99.2164 40.3906C99.3031 40.3304 99.4013 40.2887 99.5048 40.2679C99.6083 40.2471 99.715 40.2477 99.8183 40.2697C100.192 40.3232 100.559 40.4282 100.905 40.5827C101.105 40.6556 101.269 40.8044 101.361 40.9971C101.452 41.1897 101.464 41.4106 101.394 41.6119C101.278 42.0543 100.851 42.2783 100.363 42.1741C100.194 42.141 100.035 42.077 99.8702 42.0283L99.8714 42.0286ZM101.242 37.5538C102.086 37.8037 102.399 38.1638 102.251 38.7187C102.106 39.2728 101.608 39.4443 100.744 39.1884L100.363 39.0758C99.832 38.8822 99.5944 38.4506 99.7622 37.9699C99.915 37.5115 100.326 37.3156 100.858 37.4464C100.989 37.4753 101.114 37.5161 101.241 37.5535L101.242 37.5538Z" fill="black"/>
<path d="M134 29.6794L133.08 32.7888C132.872 33.4912 132.491 33.6997 131.785 33.4931C129.69 32.8828 127.597 32.2634 125.505 31.6345C124.828 31.434 124.616 31.055 124.812 30.377C125.425 28.2643 126.049 26.1548 126.685 24.0464C126.885 23.3731 127.277 23.1731 127.947 23.3687C130.042 23.9816 132.136 24.6013 134.228 25.2276C134.936 25.4371 135.138 25.8134 134.936 26.5138C134.628 27.5698 134.312 28.6232 133.999 29.6791L134 29.6794ZM133.066 26.7049L128.154 25.2511L126.697 30.1736L131.608 31.627L133.065 26.7056L133.066 26.7049Z" fill="black"/>
</g>
<g clip-path="url(#clip1_223_34)">
<path d="M22.6007 86.0408C22.9255 85.5186 23.3791 85.4225 23.9498 85.5072C25.672 85.7613 27.4004 85.9691 29.1257 86.2001C29.8937 86.3029 30.1702 86.6899 30.0598 87.4883L29.5681 91.1619L72.3855 96.8937C74.6578 97.1979 76.3293 98.302 77.2642 100.477C77.6572 101.382 77.7954 102.384 77.6631 103.37C76.8829 109.25 76.1186 115.131 75.2945 121.004C74.8754 124.006 72.2118 126.136 69.269 125.911C68.4205 125.845 67.5778 125.708 66.7345 125.602L66.0906 125.516L65.3413 131.114C65.2336 131.919 64.8631 132.217 64.0938 132.115C61.69 131.799 59.287 131.477 56.8858 131.15C56.1506 131.052 55.8612 130.658 55.9611 129.895L56.709 124.307L52.9449 123.804L52.2135 129.267C52.0921 130.174 51.7258 130.458 50.8552 130.341L30.6497 127.637C29.8073 127.524 29.538 127.152 29.6533 126.282L30.3912 120.77L25.673 120.139L24.9337 125.661C24.8296 126.439 24.4358 126.808 23.8333 126.722C23.2319 126.635 22.9618 126.157 23.0612 125.389L23.5424 121.794L22.3866 121.64C21.8735 121.571 21.3555 121.513 20.8451 121.433C20.1448 121.314 19.8481 120.914 19.9409 120.196C20.2672 117.707 20.6001 115.22 20.9396 112.736C21.0346 112.026 21.4484 111.704 22.1435 111.785C23.0206 111.888 23.8947 112.02 24.7912 112.14L25.0511 110.198C24.1693 110.08 23.2999 109.99 22.4336 109.833C22.1423 109.779 21.7773 109.625 21.6586 109.396C21.5244 109.082 21.5105 108.727 21.6197 108.401C21.7601 107.986 22.1652 107.859 22.5824 107.915L25.3001 108.279L25.559 106.344L23.2462 106.035C22.1185 105.884 21.895 105.581 22.0509 104.417L22.9808 97.4702C23.1063 96.5324 23.4512 96.2627 24.3686 96.3808L26.8596 96.7143L27.1189 94.7773L25.5955 94.5734C25.212 94.5221 24.8224 94.4829 24.4407 94.4188C23.8223 94.3054 23.4768 93.8761 23.5371 93.3315C23.6029 92.7628 24.0653 92.4216 24.7194 92.4998C25.6046 92.6018 26.4729 92.7345 27.383 92.8563L28.03 88.0227L26.9091 87.8726C25.8457 87.7303 24.784 87.5669 23.7166 87.4547C23.1416 87.3942 22.7433 87.1535 22.5264 86.6048L22.6019 86.0409L22.6007 86.0408ZM29.3754 93.116L26.0193 118.186L26.6587 118.272C28.5113 118.513 30.3676 118.742 32.2212 118.993C39.1563 119.921 46.0905 120.857 53.0235 121.801C58.2897 122.506 63.5621 123.165 68.8193 123.937C71.3601 124.31 73.2354 122.572 73.5182 120.262C74.1997 114.716 74.941 109.179 75.7423 103.648C76.0795 101.343 74.7586 99.1712 72.1493 98.8302C58.0885 96.9903 44.0341 95.0854 29.98 93.204L29.3754 93.116ZM40.095 126.912L41.9715 127.163L42.1784 125.617C42.2941 124.752 42.6767 124.356 43.3011 124.45C43.9243 124.545 44.1663 125.018 44.0508 125.899L43.8485 127.409L45.7238 127.66L45.9555 125.93C46.0552 125.254 46.4603 124.886 47.0221 124.95C47.6123 125.018 47.914 125.482 47.825 126.199L47.594 127.924L50.3895 128.298L51.0203 123.586L32.3011 121.08L31.6676 125.812L34.1237 126.141C34.234 126.148 34.3464 126.149 34.4582 126.145L34.6847 124.454C34.7925 123.726 35.1906 123.358 35.7709 123.44C36.3512 123.521 36.6454 123.981 36.5605 124.71C36.4972 125.268 36.4109 125.827 36.3351 126.393L38.2138 126.645L38.4378 124.972C38.5359 124.239 38.931 123.869 39.5091 123.94C40.1111 124.014 40.4046 124.488 40.3118 125.25C40.2496 125.792 40.1724 126.334 40.0958 126.906L40.0952 126.911L40.095 126.912ZM59.8179 129.552L60.0456 127.851C60.1417 127.133 60.5528 126.755 61.1283 126.828C61.7041 126.901 62.0088 127.368 61.9208 128.086L61.6916 129.798L63.5206 130.043L64.1522 125.325L58.6176 124.584L57.9851 129.309L59.8156 129.552L59.8179 129.552ZM25.8338 104.403L26.5988 98.6887L24.8058 98.4487L24.0408 104.163L25.8338 104.403ZM23.7689 119.828L24.5356 114.101L22.7426 113.861L21.9759 119.588L23.7689 119.828Z" fill="black"/>
<path d="M63.9309 99.7101C69.3742 100.439 73.595 105.72 72.7081 111.839C71.8643 117.663 66.5138 121.694 60.8296 120.879C58.0901 120.467 55.63 118.954 53.9901 116.674C52.3501 114.393 51.6646 111.532 52.0841 108.719C52.9339 102.928 58.2873 98.8662 63.9309 99.7101ZM65.52 112.578C65.5498 112.612 65.5836 112.643 65.6213 112.67C66.8644 113.451 69.3416 113.321 70.4981 112.425C70.5887 112.365 70.6595 112.278 70.7013 112.176C71.0074 110.904 71.0071 109.576 70.7004 108.307C70.5246 108.565 70.413 108.739 70.292 108.905C69.3762 110.156 68.2666 111.165 66.7503 111.507C66.0973 111.644 65.6814 111.904 65.52 112.578ZM54.0872 112.278C54.2521 112.04 54.3648 111.867 54.4859 111.7C55.4224 110.415 56.5623 109.377 58.1325 109.069C58.8129 108.934 59.0794 108.581 59.2834 108.018C57.9587 106.998 55.4954 107.357 54.2627 108.188C54.1722 108.253 54.1067 108.349 54.0774 108.458C53.7852 109.716 53.7885 111.025 54.0872 112.278ZM60.1133 113.497C59.4324 114.708 59.4081 115.969 59.7215 117.256C60.084 118.749 60.2394 118.875 61.7059 119.016C61.8159 119.034 61.9272 119.043 62.0384 119.044C62.7531 118.995 63.466 118.944 64.1797 118.894C64.059 118.681 63.8924 118.502 63.6913 118.367C62.4527 117.433 61.4814 116.268 61.1712 114.692C61.04 114.043 60.753 113.708 60.1144 113.497L60.1133 113.497ZM66.9417 102.858C66.9914 103.172 67.0216 103.375 67.0521 103.576C67.2692 105.179 67.1631 106.752 66.2413 108.116C65.8435 108.704 65.9643 109.122 66.2 109.625C67.6236 109.443 69.2783 107.577 69.6252 105.886C69.6395 105.719 69.5954 105.553 69.5009 105.417C68.8406 104.382 67.9672 103.509 66.9415 102.859L66.9417 102.858ZM57.8489 117.721C57.7967 117.408 57.7603 117.2 57.7333 116.999C57.5251 115.415 57.6253 113.861 58.5243 112.505C58.8995 111.94 58.8745 111.501 58.5978 110.978C58.5648 110.968 58.5287 110.963 58.4941 110.964C56.8424 111.332 55.4412 113.301 55.1608 114.71C55.1499 114.877 55.1967 115.042 55.2936 115.176C55.9526 116.207 56.8247 117.076 57.8488 117.723L57.8489 117.721ZM60.5129 101.783C60.7386 101.949 60.8866 102.052 61.0308 102.159C62.2975 103.114 63.3125 104.287 63.6182 105.905C63.7494 106.597 64.0856 106.889 64.6439 107.075C65.4963 105.792 65.4207 103.073 64.5012 101.932C64.4025 101.826 64.2734 101.756 64.1323 101.73C62.9397 101.469 61.7035 101.484 60.5138 101.776L60.5129 101.783ZM69.6021 114.917C69.2523 114.975 69.0179 115.019 68.7849 115.054C67.2567 115.279 65.7742 115.163 64.4925 114.234C63.9235 113.819 63.5034 113.974 63.0008 114.187C63.3578 115.773 65.0913 117.452 66.6079 117.699C66.75 117.718 66.896 117.69 67.0198 117.615C68.0651 116.921 68.9473 115.997 69.6018 114.911L69.601 114.916L69.6021 114.917ZM55.2 105.654L55.9629 105.546C57.4717 105.319 58.944 105.425 60.23 106.306C60.7872 106.688 61.2401 106.709 61.7849 106.403C61.7864 106.347 61.7816 106.291 61.7705 106.236C61.1898 104.444 59.8858 103.457 58.2039 102.902C58.1001 102.865 57.9861 102.87 57.8852 102.916C56.7956 103.603 55.876 104.54 55.2 105.654ZM62.1323 112.185C62.498 112.231 62.8695 112.164 63.1997 111.994C63.5298 111.823 63.8039 111.556 63.9871 111.226C64.1703 110.897 64.2545 110.52 64.229 110.143C64.2035 109.766 64.0694 109.405 63.8438 109.108C63.6181 108.81 63.311 108.589 62.9613 108.471C62.6117 108.354 62.2351 108.346 61.8794 108.448C61.5237 108.55 61.2048 108.758 60.9631 109.045C60.7214 109.332 60.5677 109.686 60.5215 110.062C60.4877 110.311 60.5029 110.565 60.5659 110.807C60.629 111.05 60.7388 111.277 60.8888 111.475C61.0388 111.673 61.2261 111.838 61.4396 111.96C61.6531 112.082 61.8886 112.159 62.1322 112.187L62.1323 112.185ZM41.3663 96.6895C46.9178 97.4326 51.0679 102.848 50.145 108.919C49.2719 114.644 43.9365 118.666 38.2918 117.865C32.9885 117.111 28.6357 111.984 29.5275 105.776C29.7267 104.385 30.1912 103.047 30.8945 101.837C31.5977 100.627 32.5258 99.5698 33.6255 98.7257C34.7253 97.8816 35.9752 97.2672 37.3035 96.9178C38.6318 96.5684 40.0124 96.4908 41.3663 96.6895ZM31.5303 109.259C31.6895 109.031 31.805 108.862 31.9247 108.697C32.843 107.428 33.9702 106.407 35.5084 106.064C36.1593 105.918 36.5623 105.651 36.7132 104.996C35.4964 104.019 33.0476 104.287 31.7147 105.164C31.6155 105.245 31.5473 105.359 31.5222 105.487C31.238 106.73 31.2408 108.022 31.5303 109.259ZM44.4384 99.8679C44.4283 99.9175 44.4216 99.9678 44.4183 100.018C44.4465 100.185 44.4817 100.351 44.5006 100.518C44.7338 102.137 44.6228 103.722 43.688 105.105C43.2945 105.686 43.4134 106.11 43.6579 106.616C45.1628 106.282 46.8657 104.425 47.0922 102.878C47.1072 102.732 47.0744 102.585 46.9989 102.46C46.3423 101.413 45.4683 100.527 44.4386 99.8667L44.4384 99.8679ZM48.1763 105.362C48.0971 105.404 48.0746 105.409 48.0649 105.422C47.956 105.575 47.8493 105.729 47.7395 105.881C46.812 107.149 45.687 108.17 44.1417 108.49C43.4852 108.626 43.1496 108.938 42.9734 109.543C42.9946 109.573 43.0184 109.601 43.0448 109.627C43.0865 109.665 43.1326 109.698 43.1821 109.724C44.8075 110.487 46.3828 110.253 47.9183 109.415C48.0556 109.325 48.1536 109.183 48.1915 109.021C48.4468 107.813 48.4416 106.564 48.1763 105.362ZM37.6054 110.499C36.9734 111.404 36.8136 112.821 37.1733 114.241C37.5526 115.738 37.6882 115.857 39.1592 115.999C39.2681 116.017 39.3794 116.026 39.4908 116.025C40.204 115.979 40.9159 115.926 41.6298 115.876C41.5088 115.664 41.342 115.485 41.1422 115.351C39.9195 114.417 38.9545 113.283 38.6322 111.729C38.4983 111.075 38.2454 110.683 37.6033 110.498L37.6055 110.498L37.6054 110.499ZM32.6353 102.66C32.9853 102.601 33.2033 102.558 33.4224 102.525C34.9496 102.298 36.446 102.404 37.7337 103.324C38.2961 103.727 38.7187 103.623 39.2485 103.386C39.2324 103.286 39.2105 103.186 39.1827 103.089C38.5741 101.384 37.3059 100.431 35.6861 99.8924C35.5482 99.8504 35.3981 99.8656 35.2703 99.9369C34.2015 100.628 33.2993 101.559 32.633 102.66L32.6353 102.66ZM40.4557 111.175C40.636 112.546 42.2231 114.179 44.0513 114.67C44.1738 114.698 44.3025 114.68 44.4141 114.618C45.4886 113.925 46.3953 112.989 47.0647 111.882C46.7591 111.935 46.572 111.969 46.3752 112.008C44.8532 112.255 43.36 112.169 42.0538 111.276C41.4984 110.906 41.0448 110.839 40.4534 111.175L40.4557 111.175ZM36.0366 107.924C35.9193 107.942 35.8055 107.969 35.6928 108.005C34.0981 108.659 33.1528 109.916 32.6398 111.553C32.5888 111.711 32.6 111.884 32.6716 112.035C33.31 113.089 34.1752 113.978 35.2014 114.634C35.2396 114.581 35.2613 114.565 35.2609 114.55C35.2399 114.364 35.2156 114.177 35.1866 113.99C34.9636 112.423 35.0666 110.899 35.9299 109.552C36.3011 108.983 36.3628 108.522 36.0332 107.923L36.0366 107.924ZM42.0974 104.039C43.0485 102.782 42.7993 100.271 41.9557 98.9239C41.8824 98.8193 41.7742 98.7461 41.6515 98.7181C40.4393 98.4418 39.1794 98.4559 37.9694 98.7591L38.4602 99.123C39.7157 100.059 40.7167 101.216 41.0522 102.809C41.1925 103.459 41.4177 103.877 42.0981 104.042L42.0974 104.039ZM39.5362 109.161C40.6431 109.321 41.5399 108.65 41.699 107.547C41.858 106.445 41.1998 105.539 40.1517 105.386C39.0766 105.228 38.1322 105.929 37.9752 106.999C37.9374 107.247 37.9479 107.501 38.0062 107.744C38.0645 107.988 38.1693 108.217 38.3147 108.418C38.4601 108.619 38.6431 108.788 38.8531 108.915C39.0632 109.043 39.2961 109.126 39.5384 109.161L39.5362 109.161Z" fill="black"/>
</g>
<g clip-path="url(#clip2_223_34)">
<path d="M56.053 37.6969C56.053 37.6969 55.3782 38.5436 54.8498 39.8164L54.2219 41.3235L53.4599 41.0313C52.5768 40.6927 51.8006 40.7566 51.2243 41.2086C50.936 41.4387 50.7211 41.818 50.1709 43.0935L49.4978 44.6931L37.4597 40.1578C26.0165 35.8506 25.3971 35.6326 24.9139 35.7185C23.964 35.9211 23.1051 36.4259 22.4655 37.1574C21.9638 37.759 21.8193 38.1361 16.3709 52.3452C10.8997 66.6137 10.7853 66.9119 10.7501 67.7104C10.6976 68.727 11.0424 69.7239 11.7115 70.4902L12.233 71.0907L67.485 92.2768L68.284 92.1826C69.2914 92.0558 70.21 91.5445 70.8473 90.7558C71.3554 90.1372 71.4665 89.8474 76.941 75.5704C82.3889 61.3625 82.5335 60.9855 82.5627 60.2027C82.5942 59.1831 82.2513 58.1874 81.5988 57.4039C81.1921 56.9462 80.9551 56.8359 76.0199 54.9435C71.2615 53.1189 70.8177 52.9682 70.5025 53.1088C70.0283 53.2982 69.7512 53.9957 69.9417 54.5206C70.0725 54.9115 70.1246 54.9315 75.1154 56.8855C79.954 58.7909 80.1466 58.8647 80.3744 59.2635C80.8666 60.1253 81.1703 59.2281 75.165 74.8895C69.1904 90.4709 69.5554 89.6277 68.6187 90.0014L68.1872 90.1557L13.129 69.0439L12.9209 68.6443C12.4657 67.737 12.1685 68.6172 18.1472 53.0249C24.1558 37.355 23.7781 38.235 24.7384 37.9302L25.1894 37.7722L66.066 53.3766L66.4171 53.1385C66.8731 52.8406 67.0929 52.213 66.932 51.7703C66.8051 51.4199 66.6392 51.3562 62.0734 49.6055L57.3489 47.794L57.9231 46.1661C58.4146 44.7791 58.4938 44.4674 58.4063 44.0724C58.2011 43.1399 57.9297 42.8258 56.9447 42.387L56.025 41.9843L56.4917 40.7671C56.9849 39.4809 58.1248 38.6026 58.1248 38.6026L56.0615 37.7001L56.053 37.6969ZM55.5626 47.0895L51.3021 45.4558L52.2829 42.8979L56.5434 44.5316L55.5626 47.0895Z" fill="black"/>
<path d="M25.9006 41.3892C24.981 41.5371 24.8468 41.7276 23.7726 44.5292C22.8764 46.8665 22.8194 47.0949 22.9128 47.5326C23.1182 48.5152 23.3965 48.7025 25.8946 49.6201C29.1514 50.8091 29.1819 50.7805 30.5717 47.1558C31.9514 43.5577 31.8944 43.4455 28.5533 42.1644C26.8029 41.4932 26.276 41.3523 25.9011 41.3879L25.9006 41.3892ZM28.1381 48.1902L24.9545 46.9694L26.2533 43.5823L29.4368 44.8031L28.1381 48.1902ZM33.5894 44.3374C32.671 44.4858 32.5368 44.6763 31.4728 47.4512C30.617 49.683 30.5249 49.9995 30.5756 50.4722C30.6909 51.3494 30.8671 51.4878 33.4231 52.4679C36.8344 53.776 36.7649 53.798 38.1811 50.264C39.675 46.4984 39.6397 46.4056 36.2454 45.1041C34.4961 44.4334 33.9568 44.2961 33.5899 44.3362L33.5894 44.3374ZM35.8243 51.1485L34.2198 50.4916L32.6007 49.8221L33.7962 46.4941L37.1203 47.7687L35.8243 51.1485ZM41.3151 47.2691C41.0805 47.2793 40.7083 47.4383 40.503 47.6113C40.1583 47.8796 40.0238 48.1506 39.1346 50.4697C37.7113 54.1817 37.6861 54.0914 41.1156 55.4065C44.5439 56.721 44.4564 56.7681 45.8797 53.0561C47.3068 49.3344 47.3115 49.3474 43.9087 48.0426C42.371 47.4724 41.6067 47.2405 41.3151 47.2691ZM43.5131 54.0968L41.9098 53.4403L40.2907 52.7708L41.485 49.4423L44.8091 50.7169L43.5131 54.0968ZM48.9966 50.2146C48.7693 50.2275 48.3983 50.387 48.1918 50.5595C47.8471 50.8278 47.7138 51.0993 46.8246 53.4184C45.4012 57.1304 45.3676 57.0369 48.8044 58.3547C52.2326 59.6692 52.1451 59.7163 53.5685 56.0043C54.9955 52.2826 55.0003 52.2956 51.5987 50.9912C50.0609 50.4211 49.2967 50.1892 49.005 50.2178L48.9966 50.2146ZM51.8458 55.3438L51.1979 57.0337L47.8907 55.7656L49.183 52.3955L52.4986 53.6668L51.8543 55.347L51.8458 55.3438ZM56.6651 53.1648C55.7805 53.2469 55.6146 53.4947 54.5134 56.3666C53.09 60.0786 53.0564 59.9851 56.4847 61.2996C59.9226 62.6179 59.8351 62.665 61.2584 58.953C62.6855 55.2313 62.6903 55.2443 59.2874 53.9395C57.7061 53.3526 56.9855 53.1374 56.6651 53.1648ZM58.8615 59.8916L57.2263 59.3147L55.5775 58.7228L56.8734 55.3429L60.1975 56.6175L58.8615 59.8916ZM64.302 56.1432C63.3969 56.2786 63.1404 56.6614 62.1147 59.4412C60.7954 63.0124 60.7718 62.9435 64.1831 64.2516C66.7283 65.2275 66.951 65.2517 67.6252 64.6676C67.9754 64.3597 68.1217 64.0542 68.9742 61.8309C70.364 58.2062 70.3536 58.1827 66.9762 56.8877C65.1482 56.1867 64.7293 56.0762 64.302 56.1432ZM66.5515 62.8403L64.9163 62.2634L63.2674 61.6714L64.5634 58.2916L67.8875 59.5662L66.5515 62.8403ZM71.9835 59.0886C71.112 59.2161 70.8368 59.6222 69.843 62.2141C68.4498 65.8473 68.4481 65.8772 71.6735 67.1737C74.1434 68.1611 74.4885 68.2031 75.2865 67.615C75.6486 67.352 75.7594 67.1428 76.6551 64.8067C78.0552 61.1553 78.0436 61.1314 74.6674 59.8368C72.8382 59.1354 72.4193 59.0248 71.9932 59.0923L71.9835 59.0886ZM74.1532 65.8344L70.9611 64.6104L72.2599 61.2233L75.4519 62.4473L74.1532 65.8344ZM22.162 51.1103C21.3023 51.2326 21.0859 51.5612 20.0386 54.2925C19.2228 56.42 19.1067 56.7773 19.1669 57.2218C19.2936 58.1742 19.2403 58.1538 23.415 59.8046C25.9415 60.8039 27.4126 61.3375 27.7409 61.3437C28.0041 61.364 28.4247 61.2347 28.6793 61.0709C29.1523 60.7795 29.1555 60.771 30.1359 58.2143C31.2366 55.3436 31.2673 55.0244 30.7109 54.3592C30.254 53.8224 22.8543 51.0045 22.162 51.1103ZM27.7312 59.1694L21.2236 56.6741L22.5158 53.304L29.0235 55.7993L27.7312 59.1694ZM33.3734 55.4204C32.489 55.5527 32.2138 55.9588 31.2232 58.5422C30.2666 61.0371 30.1789 61.5555 30.5825 62.2025C30.7984 62.5564 31.0418 62.679 33.2805 63.5374L35.7566 64.4868L36.3478 64.1517L36.948 63.7895L37.9316 61.2243C39.3884 57.4251 39.4036 57.4615 36.0444 56.1734C34.2164 55.4725 33.8012 55.3522 33.3734 55.4204ZM35.5346 62.163L32.3414 60.9386L33.6336 57.5684L36.8269 58.7929L35.5346 62.163ZM41.3807 58.4296C40.4267 58.5366 40.3516 58.6273 39.2101 61.474C38.2165 63.9853 38.1933 64.046 38.2866 64.6143C38.4368 65.4547 38.7985 65.7144 41.1341 66.61C43.3578 67.4821 43.7882 67.5373 44.4827 67.0597C44.8714 66.8069 44.9404 66.6525 45.8668 64.2365C47.3101 60.4724 47.3116 60.4938 43.9706 59.2127C42.4361 58.634 41.6723 58.401 41.3807 58.4296ZM43.4596 65.2018L40.2664 63.9773L41.5586 60.6072L44.7519 61.8317L43.4596 65.2018ZM49.1658 61.4453C48.323 61.5741 48.1389 61.8442 47.0479 64.6894C46.1215 67.1054 46.0695 67.2663 46.1896 67.7142C46.3867 68.5337 46.7437 68.7804 48.9771 69.6271C51.3127 70.5227 51.7586 70.5629 52.4322 70.0383C52.8815 69.6781 52.9053 69.6163 53.8365 67.0825C54.9059 64.1886 54.9112 64.0697 54.2482 63.3635C53.7869 62.8669 49.7631 61.3517 49.1646 61.4449L49.1658 61.4453ZM51.3858 68.241L48.1926 67.0166L49.4848 63.6465L52.6781 64.8709L51.3858 68.241ZM57.0572 64.4921C56.2395 64.6096 56.0639 64.8829 54.9627 67.7548L53.9791 70.32L54.1844 70.9911L54.3951 71.6448L56.87 72.5938C60.3431 73.9255 60.3314 73.9307 61.7449 70.2442C63.1241 66.6474 63.0671 66.5351 59.7261 65.254C57.9489 64.5726 57.4396 64.4371 57.0576 64.4909L57.0572 64.4921ZM59.3108 71.2798L56.1176 70.0554L57.4098 66.6853L60.6031 67.9097L59.3108 71.2798ZM64.8934 67.476C64.0604 67.6085 63.8677 67.8753 62.7767 70.7205C61.7931 73.2857 61.7899 73.2942 61.9505 73.8174C62.0254 74.1187 62.2517 74.496 62.4621 74.6574C62.7093 74.8717 64.16 75.4586 66.7081 76.4051C70.9102 77.9774 70.8581 77.9574 71.5928 77.3242C71.9347 77.034 72.0957 76.6938 72.9115 74.5663C74.4018 70.6797 74.5706 70.9461 69.2162 68.893C66.006 67.662 65.2661 67.4173 64.8934 67.476ZM70.4291 75.5431L63.9214 73.0477L65.2137 69.6776L71.7213 72.1729L70.4291 75.5431ZM18.7606 60.7926C18.5249 60.7783 18.2892 60.8204 18.0729 60.9155C17.8567 61.0106 17.6662 61.1558 17.5172 61.3392C17.287 61.6027 16.9283 62.3788 16.2803 64.0687C15.4817 66.1514 15.3842 66.4853 15.4375 66.9479C15.549 67.8347 15.7164 67.9489 18.3319 68.9518C21.7262 70.2534 21.7133 70.2581 23.1264 66.5728C24.4995 62.9917 24.4523 62.854 21.162 61.6216C19.9869 61.1821 18.9029 60.8165 18.7696 60.7946L18.7611 60.7914L18.7606 60.7926ZM20.689 67.6169L17.5054 66.3962L18.8014 63.0164L21.985 64.2371L20.689 67.6169ZM26.8495 64.0346C25.9298 64.1826 25.7969 64.3736 24.7064 67.2176C23.6316 70.0204 23.5931 70.2767 24.1175 70.9492C24.4709 71.4156 58.1587 84.3331 58.7333 84.2224C59.5734 84.0718 59.7157 83.8566 60.7899 81.055C61.6527 78.805 61.7648 78.4364 61.6931 78.0474C61.5096 77.0329 62.2666 77.3635 47.7891 71.8121C38.253 68.1556 34.5015 66.7671 34.2515 66.7922C33.7267 66.8525 33.3266 67.3706 33.3713 67.9607C33.3781 68.2038 33.4696 68.4906 33.5453 68.5794C33.6425 68.6667 39.5567 70.9846 46.721 73.7317L59.7205 78.7163L58.4315 82.0779L25.7842 69.5595L27.0765 66.1894L28.2927 66.6558C29.4121 67.085 29.5447 67.1052 29.8883 66.9157C30.4276 66.6108 30.6427 65.9702 30.3833 65.4689C30.2039 65.0998 30.0215 64.9992 28.7447 64.5097C27.6859 64.1037 27.195 63.9961 26.8499 64.0334L26.8495 64.0346ZM64.5402 78.4967C63.6622 78.6411 63.3865 79.0485 62.3932 81.6392C60.9833 85.316 60.9768 85.3038 64.3712 86.6053C66.9878 87.6087 67.1875 87.6352 67.8666 87.0418C68.2118 86.7431 68.363 86.4284 69.1616 84.3457C70.5919 80.6156 70.6168 80.6557 67.3467 79.342C65.3363 78.5405 64.9881 78.4265 64.5499 78.5004L64.5402 78.4967ZM66.7029 85.2607L63.5108 84.0367L64.8068 80.6569L67.9989 81.8809L66.7029 85.2607Z" fill="black"/>
</g>
<g clip-path="url(#clip3_223_34)">
<path d="M123.429 83.2485C123.421 83.7306 123.166 84.0317 122.75 84.2583C121.966 84.6867 121.202 85.1521 120.377 85.6282L122.913 90.0197C123.299 90.6884 123.208 91.0242 122.542 91.4084L104.452 101.853C103.769 102.247 103.423 102.153 103.022 101.472C102.821 101.123 102.628 100.771 102.413 100.432C102.165 100.04 101.731 99.9209 101.371 100.124C101.201 100.224 101.076 100.385 101.022 100.575C100.968 100.764 100.991 100.967 101.084 101.14C101.292 101.57 101.555 101.97 101.783 102.389C102.068 102.913 101.97 103.287 101.447 103.589C97.9921 105.589 94.5371 107.583 91.0831 109.572C90.5448 109.883 90.173 109.781 89.8524 109.233C89.0699 107.894 88.3013 106.546 87.5301 105.211L87.2648 104.751L84.9429 106.092C84.1322 106.559 83.8321 106.474 83.361 105.658L78.3752 97.0224C77.991 96.3569 78.0143 96.1586 78.5832 95.6326C78.888 95.3489 78.9658 95.0208 78.7639 94.6694C78.5714 94.3359 78.2611 94.2393 77.8814 94.3381C77.0348 94.5649 76.927 94.5141 76.487 93.7519L73.7617 89.0316C72.9683 87.6538 73.31 86.3854 74.6983 85.5838L110.064 65.1657C111.229 64.4927 112.249 64.6572 113.204 65.5317L116.555 71.335C116.578 71.7347 116.407 72.0373 116.093 72.2904C116.018 72.341 115.953 72.406 115.903 72.4815C115.853 72.557 115.819 72.6417 115.802 72.7305C115.785 72.8193 115.786 72.9105 115.804 72.9989C115.823 73.0873 115.858 73.1712 115.91 73.2456C116.111 73.5941 116.432 73.652 116.835 73.5734C117.161 73.5115 117.512 73.5753 117.853 73.5834L123.429 83.2485ZM121.601 83.1365C120.08 80.5014 118.584 77.9107 117.077 75.3265C117.013 75.2155 116.791 75.1431 116.643 75.1439C115.727 75.1498 115.025 74.7787 114.568 73.9925C114.112 73.2059 114.155 72.4207 114.621 71.6623C114.76 71.4449 114.77 71.2909 114.64 71.0684C113.818 69.6689 113.017 68.2574 112.2 66.8552C111.825 66.2063 111.464 66.1182 110.797 66.5029L75.4768 86.8953C74.8128 87.2786 74.7147 87.6321 75.0939 88.2889C75.8971 89.6801 76.7045 91.0785 77.4982 92.4698C77.6318 92.7012 77.7611 92.7966 78.0502 92.785C78.9231 92.7489 79.6101 93.1235 80.0652 93.8695C80.2937 94.2137 80.4162 94.6173 80.4175 95.0308C80.4189 95.4442 80.2991 95.8494 80.0728 96.1965C79.9065 96.4721 79.9103 96.6495 80.0685 96.9088C81.4768 99.3261 82.867 101.756 84.2726 104.176C84.3439 104.299 84.4277 104.417 84.513 104.548L121.601 83.1365ZM105.255 96.1339L106.751 98.7262L108.089 97.954L106.597 95.3705L107.92 94.607L109.415 97.1977L110.735 96.4356L109.244 93.8521L110.576 93.0827L112.067 95.6654L113.397 94.8978L111.897 92.2992L113.21 91.5408L114.706 94.1307L116.043 93.3586L114.552 90.7758L115.861 90.0201L117.352 92.6029L118.679 91.8367L117.188 89.2539L118.515 88.4877L120.012 91.08L121.298 90.3372L119.043 86.4313L88.6213 103.995L90.8717 107.893L92.1909 107.132L90.6961 104.543L92.0097 103.784L93.5008 106.367L94.8279 105.601L93.3368 103.018L94.6607 102.254L96.1519 104.836L97.4774 104.071L95.9894 101.494L97.3149 100.729L98.8107 103.319L99.9692 102.65C99.7904 101.928 99.5221 101.268 99.4907 100.598C99.4557 99.8475 99.9017 99.2446 100.549 98.8373C101.012 98.5483 101.565 98.4378 102.103 98.5264C103.141 98.6672 103.656 99.4272 104.101 100.256L105.426 99.4915L103.935 96.9087L105.255 96.1339Z" fill="black"/>
<path d="M87.404 83.5405L93.9768 79.7457L100.818 91.5956L94.2464 95.3899L87.4048 83.54L87.404 83.5405ZM94.7965 93.3092L98.7318 91.0372L93.4212 81.839L89.486 84.111L94.7965 93.3092ZM101.948 75.15L108.789 86.9991L102.206 90.7998L95.3647 78.9507L101.948 75.15ZM106.7 86.4449L101.384 77.2372L97.4627 79.5014L102.779 88.7091L106.7 86.4449ZM86.2938 99.9771L79.46 88.1407L86.0344 84.345L92.8681 96.1814L86.2938 99.9771ZM90.7856 95.6355L85.4663 86.4223L81.5526 88.6819L86.8723 97.8959L90.786 95.6363L90.7856 95.6355ZM116.72 82.4263L110.165 86.211L103.325 74.3643L109.88 70.5796L116.72 82.4263ZM114.63 81.8723L109.31 72.6583L105.398 74.917L110.717 84.131L114.63 81.8723Z" fill="black"/>
</g>
<g clip-path="url(#clip4_223_34)">
<path d="M124.974 137.771C130.33 134.255 133.974 126.948 132.959 119.884L130.994 120.494C131.392 124.948 130.223 129.031 127.435 132.708C127.238 132.561 127.066 132.435 126.905 132.311C126.745 132.186 126.575 132.047 126.447 131.946C131.024 124.836 130.97 117.997 125.459 111.421C120.788 106.79 115.258 105.339 109.008 107.402C103.657 109.167 100.322 112.991 98.8031 118.313C99.6966 118.409 100.543 118.511 101.393 118.59C101.451 118.588 101.508 118.572 101.559 118.544C101.61 118.517 101.654 118.477 101.687 118.429C102.249 117.438 103.627 116.967 104.739 117.508C105.865 118.057 106.359 119.19 105.963 120.483C104.503 125.251 103.033 130.015 101.551 134.775C101.409 135.232 101.254 135.713 100.984 136.095C100.36 136.98 99.2611 137.27 98.2479 136.912C97.3266 136.585 96.706 135.663 96.7064 134.624C96.7065 134.538 96.7105 134.454 96.7106 134.38C96.1461 134.073 95.5472 133.83 95.0411 133.459C93.1469 132.068 92.4157 129.814 93.0796 127.561C93.2069 127.126 93.3311 126.687 93.486 126.26C93.7566 125.51 93.7927 124.792 93.6786 123.969C93.3725 121.721 93.6129 119.467 94.181 117.26C95.4822 112.204 98.2932 108.202 102.584 105.233C102.709 105.147 102.841 105.068 103.005 104.962C103.126 105.145 103.245 105.329 103.362 105.514C103.482 105.702 103.6 105.891 103.718 106.08C98.3075 109.784 95.3721 114.89 94.9858 121.452C95.2041 121.119 95.3805 120.748 95.6531 120.464C96.0777 120.014 96.569 119.625 97.0206 119.199C97.1593 119.088 97.2641 118.939 97.3224 118.772C98.4016 113.871 101.106 110.141 105.381 107.538C105.404 107.513 105.426 107.489 105.445 107.462L104.708 104.965C104.489 104.22 104.572 104.024 105.277 103.697C110.625 101.245 116.062 100.991 121.528 103.154C131.081 106.946 136.272 116.839 133.933 126.79C132.533 132.742 129.069 137.191 123.745 140.189C123.609 140.266 123.468 140.371 123.322 140.382C122.714 140.433 122.402 140.868 122.064 141.287C121.629 141.83 121.179 142.362 120.715 142.881C119.826 143.859 118.606 144.47 117.292 144.595C115.978 144.72 114.666 144.349 113.613 143.555C113.358 143.364 113.192 143.354 112.916 143.53C112.44 143.828 111.873 143.948 111.318 143.869C110.762 143.789 110.252 143.515 109.88 143.094C109.507 142.674 109.296 142.135 109.283 141.573C109.27 141.011 109.456 140.462 109.809 140.024C113.167 135.997 116.53 131.976 119.896 127.959C120.72 126.979 121.98 126.796 123.038 127.466C124.036 128.098 124.388 129.311 123.885 130.46C123.789 130.679 123.851 130.784 124.001 130.928C125.734 132.592 126.194 134.572 125.415 136.84C125.285 137.159 125.138 137.469 124.974 137.771ZM106.722 106.803C111.772 104.571 116.807 104.484 121.741 106.986C126.674 109.488 129.617 113.602 130.786 118.968L132.728 118.399C130.488 106.409 117.135 99.6247 106.144 104.829L106.722 106.803ZM114.177 142.227C114.207 142.269 114.24 142.31 114.275 142.347C115.9 143.729 118.383 143.518 119.812 141.852C121.02 140.44 122.199 139.003 123.395 137.578C124.018 136.837 124.395 135.994 124.414 135.017C124.437 133.705 123.936 132.635 122.905 131.781L114.177 142.227ZM97.124 132.959L101.133 119.975C99.1482 119.245 96.8106 120.333 96.1444 122.326C95.5054 124.235 94.9091 126.161 94.3539 128.102C93.7446 130.23 95.0403 132.476 97.1236 132.96L97.124 132.959ZM104.224 118.789C103.603 118.442 102.941 118.741 102.704 119.504C101.181 124.425 99.6617 129.347 98.1468 134.272C97.9521 134.904 98.2286 135.484 98.7806 135.654C99.3687 135.83 99.898 135.506 100.105 134.845L103.644 123.414L104.658 120.118C104.844 119.519 104.685 119.048 104.224 118.789ZM122.536 130.092C122.874 129.498 122.767 128.954 122.345 128.649C121.848 128.29 121.296 128.387 120.849 128.921L110.943 140.787C110.825 140.928 110.736 141.09 110.683 141.266C110.624 141.488 110.643 141.723 110.736 141.933C110.829 142.142 110.991 142.314 111.195 142.418C111.643 142.653 112.144 142.533 112.519 142.083C115.859 138.088 119.199 134.092 122.536 130.094L122.536 130.092Z" fill="black"/>
</g>
<g clip-path="url(#clip5_223_34)">
<path d="M81.1067 20.6849C80.6512 21.3337 80.2016 21.9868 79.7401 22.6319C78.5175 24.342 77.2946 26.0567 76.0558 27.7506C75.9084 27.9483 75.7083 28.1024 75.4773 28.1959C72.5895 29.294 69.6972 30.3806 66.8004 31.4557C66.2434 31.6638 65.9945 31.5838 65.6337 31.1125C65.1781 30.5172 64.4956 30.314 63.8101 30.1399C62.6734 29.8437 61.5018 29.7672 60.3287 29.7413C60.0979 29.7362 60.0196 29.8103 60.0131 30.0324C59.9985 30.5417 59.9662 31.0507 59.9265 31.5592C59.8839 32.1415 59.5627 32.4243 58.9752 32.393C57.5845 32.3194 56.1949 32.2405 54.8055 32.1564C54.2208 32.1232 53.9248 31.7934 53.9511 31.2209C53.9768 30.6483 54.016 30.0771 54.0507 29.4664C53.3711 29.4278 52.7214 29.341 52.0769 29.3664C51.2676 29.3977 50.8365 29.0656 50.5075 28.3357C49.4631 26.0514 48.3366 23.8032 47.2553 21.5355C47.1553 21.3449 47.1063 21.1327 47.1129 20.9187C47.1523 20.4868 47.5106 20.246 48.0262 20.2753C48.9413 20.3205 49.8577 20.3792 50.7731 20.4311L51.1471 20.4523L51.1944 19.6186C50.882 19.6008 50.5679 19.591 50.2553 19.5653C49.8259 19.5263 49.5335 19.2873 49.4669 18.9398C49.4415 18.8282 49.4421 18.7124 49.4687 18.6012C49.4953 18.4899 49.5472 18.386 49.6205 18.2972C49.6938 18.2085 49.7867 18.1371 49.8921 18.0884C49.9976 18.0397 50.113 18.015 50.2296 18.0161C50.5697 18.0121 50.9092 18.0547 51.2738 18.0754L51.3217 17.2303L48.2592 17.0566C47.463 17.0114 47.1346 16.4027 47.5515 15.7398C48.9816 13.4647 50.4103 11.189 51.8378 8.91243C52.0575 8.56194 52.3513 8.40346 52.7714 8.42729C55.2747 8.57397 57.7802 8.7048 60.283 8.8601C61.295 8.92351 62.304 9.062 63.3169 9.11946C64.2116 9.16489 65.1149 9.11891 65.9629 8.8114C66.3418 8.67506 66.6946 8.42402 67.0056 8.16463C67.348 7.8817 67.6468 7.81342 68.1239 8.05492C69.6247 8.81583 71.1249 9.57778 72.6246 10.3408C73.8594 10.9676 75.101 11.5841 76.3259 12.231C76.5651 12.3595 76.7644 12.5492 76.9024 12.7798C78.2785 15.2181 79.635 17.6672 80.9964 20.1139C81.047 20.1807 81.0827 20.27 81.1252 20.359L81.1068 20.6842L81.1067 20.6849ZM68.533 19.0325C68.2465 18.6054 68.011 18.2531 67.7733 17.9013C66.2087 15.5735 64.6421 13.247 63.0733 10.9217C63.0011 10.8157 62.8779 10.6869 62.7652 10.6738C61.8842 10.5672 61.0107 10.4591 60.1302 10.4031C57.8478 10.2583 55.5635 10.1441 53.2807 10.0052C53.2005 9.99406 53.1187 10.0083 53.0474 10.0458C52.9761 10.0833 52.9189 10.1422 52.8841 10.2138C51.8293 11.9134 50.7678 13.61 49.6996 15.3049C49.6555 15.3858 49.6162 15.4692 49.5822 15.5546L49.9819 15.5773C52.001 15.6919 54.0192 15.7997 56.0375 15.9275C56.3096 15.947 56.5748 16.0214 56.8163 16.1462C58.2671 16.9091 59.7033 17.7005 61.1514 18.4633C61.3431 18.5654 61.5546 18.6267 61.772 18.643C63.8894 18.7738 66.0077 18.89 68.1257 19.0101L68.5322 19.0332L68.533 19.0325ZM68.4145 20.6175C68.2879 20.5956 68.2344 20.5806 68.1816 20.5776L61.5293 20.2002C61.3744 20.1994 61.2217 20.2307 61.0802 20.2926C59.5573 20.8968 58.0404 21.516 56.5122 22.1066C56.2273 22.2148 55.9224 22.264 55.6169 22.251C53.6084 22.153 51.6012 22.0318 49.593 21.9179L49.2068 21.8959C49.2562 22.0193 49.2787 22.0892 49.3104 22.1549C50.1598 23.9199 51.0128 25.6825 51.8492 27.4508C51.9664 27.6972 52.1048 27.7976 52.3903 27.8092C55.4978 27.9455 58.594 28.1005 61.6921 28.2337C61.769 28.2275 61.8438 28.2065 61.9122 28.1717C61.9805 28.1369 62.0411 28.0891 62.0904 28.0312C63.6546 26.2089 65.2138 24.3825 66.7679 22.5519C67.3059 21.9225 67.8391 21.2941 68.4138 20.6168L68.4145 20.6175ZM78.8685 19.6036C78.8649 19.568 78.8578 19.5328 78.8473 19.4985C77.7826 17.5734 76.7166 15.6482 75.6484 13.7256C75.5939 13.6335 75.5141 13.5583 75.418 13.5087C72.9295 12.2397 70.4387 10.9751 67.9454 9.71503C67.8948 9.695 67.8403 9.68636 67.7859 9.68972C67.7314 9.69309 67.6785 9.70839 67.631 9.73449C66.956 10.1783 66.2035 10.4054 65.4137 10.5364L64.7867 10.638C64.8471 10.7347 64.8794 10.7898 64.9151 10.8431C66.7351 13.5386 68.5576 16.2326 70.3825 18.925C70.4338 18.9886 70.4977 19.0416 70.5701 19.0807C70.6426 19.1198 70.7224 19.1443 70.8046 19.1528C73.3956 19.3117 75.9881 19.4555 78.5804 19.6019C78.6672 19.6068 78.753 19.603 78.8685 19.6036ZM78.8036 21.1789L78.3775 21.1547C75.8515 21.0114 73.326 20.8728 70.8007 20.7189C70.6833 20.7035 70.5639 20.7193 70.4551 20.7649C70.3463 20.8104 70.2521 20.8838 70.1824 20.9775C68.7099 22.7187 67.2303 24.4528 65.7436 26.1799L63.7644 28.5024C63.8833 28.5391 63.9633 28.5669 64.045 28.5882C64.9065 28.8109 65.7364 29.0998 66.4213 29.6794C66.4794 29.7403 66.5563 29.7811 66.6401 29.7955C66.7239 29.8099 66.8102 29.797 66.8858 29.759C69.4475 28.7922 72.0126 27.8369 74.5731 26.868C74.7332 26.804 74.8718 26.6974 74.9732 26.5603C76.1921 24.8748 77.4029 23.1835 78.6054 21.4867C78.6601 21.4078 78.709 21.326 78.8029 21.1795L78.8036 21.1789ZM52.7683 20.5343L55.7611 20.7041C55.838 20.7018 55.9138 20.6835 55.9836 20.6515C57.0651 20.22 58.1467 19.7866 59.227 19.3517C59.2663 19.3293 59.3024 19.304 59.336 19.2746C58.5828 18.869 57.8363 18.5116 57.139 18.0785C56.4268 17.6204 55.5897 17.3855 54.739 17.4049C54.1483 17.4167 53.5562 17.3464 52.9538 17.3123L52.9064 18.1487C53.2194 18.1664 53.517 18.1687 53.8092 18.2066C53.993 18.2242 54.1712 18.2792 54.3323 18.3681C54.6035 18.5353 54.7032 18.8979 54.6129 19.2085C54.5717 19.3617 54.4805 19.4975 54.3533 19.5952C54.2261 19.6929 54.0697 19.7472 53.9079 19.7499C53.5528 19.7544 53.1887 19.7144 52.8147 19.6932L52.7684 20.5337L52.7683 20.5343ZM55.5989 30.6198L58.3538 30.776L58.4128 29.7372L55.6572 29.5808L55.5982 30.6204L55.5989 30.6198Z" fill="black"/>
</g>
<defs>
<clipPath id="clip0_223_34">
<rect width="58.5011" height="52.7232" fill="white" transform="translate(91.7192 2.97754) rotate(16.4862)"/>
</clipPath>
<clipPath id="clip1_223_34">
<rect width="57" height="41" fill="white" transform="translate(22.6798 85.2783) rotate(7.62461)"/>
</clipPath>
<clipPath id="clip2_223_34">
<rect width="65" height="47" fill="white" transform="translate(26.2759 26.1873) rotate(20.979)"/>
</clipPath>
<clipPath id="clip3_223_34">
<rect width="46" height="29" fill="white" transform="translate(72.4243 86.884) rotate(-30)"/>
</clipPath>
<clipPath id="clip4_223_34">
<rect width="41" height="41" fill="white" transform="translate(105.766 94.3987) rotate(28.5224)"/>
</clipPath>
<clipPath id="clip5_223_34">
<rect width="25" height="34" fill="white" transform="translate(46.4819 31.7175) rotate(-86.753)"/>
</clipPath>
</defs>
</svg>
